<?xml version="1.0" encoding="UTF-8"?>
<svg xmlns="http://www.w3.org/2000/svg" xmlns:xlink="http://www.w3.org/1999/xlink" version="1.1" viewBox="0 0 64 64">
  <defs>
    <style>
      .cls-1 {
        stroke-width: 3px;
      }

      .cls-1, .cls-2 {
        fill: none;
        stroke: #d4a85a;
        stroke-linecap: round;
        stroke-miterlimit: 10;
      }

      .cls-3 {
        opacity: .3;
      }

      .cls-2 {
        stroke-width: 2px;
      }
    </style>
  </defs>
  <!-- Generator: Adobe Illustrator 28.7.3, SVG Export Plug-In . SVG Version: 1.2.0 Build 164)  -->
  <g>
    <g id="Layer_1">
      <image class="cls-3" width="1280" height="1024" transform="translate(-411.9 -25.4) scale(.4)" xlink:href="../../../../file_00000000d04c720abc06b7919c0f71fc(1).png"/>
      <path class="cls-2" d="M30.1,10.1h23.8s5.7,23.2,0,41.9h-20.4"/>
      <path class="cls-2" d="M36.7,10.1H12.9s-5.7,23.2,0,41.9h21.7"/>
      <path class="cls-2" d="M12.5,12.3s-4.3-5.4-2.1-9.2l3.5,1.2c.6.2,1.2.1,1.8-.1l2.6-1.3c.7-.3,1.5-.3,2.1,0l1.9,1c.7.4,1.5.4,2.2,0l2.6-1.4c.7-.4,1.6-.4,2.3,0l2.4,1.4h2.1l2.4-1.4c.7-.4,1.6-.4,2.3,0l2.6,1.4c.7.4,1.5.4,2.2,0l1.9-1c.7-.4,1.5-.4,2.1,0l2.6,1.3c.6.3,1.2.3,1.8.1l3.5-1.2c2.3,3.8-2.1,9.2-2.1,9.2"/>
      <path class="cls-2" d="M12.5,50.9s-4.3,5.4-2.1,9.2l3.5-1.2c.6-.2,1.2-.1,1.8.1l2.6,1.3c.7.3,1.5.3,2.1,0l1.9-1c.7-.4,1.5-.4,2.2,0l2.6,1.4c.7.4,1.6.4,2.3,0l2.4-1.4h2.1l2.4,1.4c.7.4,1.6.4,2.3,0l2.6-1.4c.7-.4,1.5-.4,2.2,0l1.9,1c.7.4,1.5.4,2.1,0l2.6-1.3c.6-.3,1.2-.3,1.8-.1l3.5,1.2c2.3-3.8-2.1-9.2-2.1-9.2"/>
      <path class="cls-1" d="M17.7,36.1s-1.3-2.4,2.4-2.9c3.7-.5,9.8-3.1,11.3-9.1s15.3-7.7,15.1,4.6-17.3,20.8-28.9,7.5Z"/>
    </g>
  </g>
</svg>