<?xml version="1.0" encoding="UTF-8"?>
<svg xmlns="http://www.w3.org/2000/svg" version="1.1" viewBox="0 0 64 64">
  <defs>
    <style>
      .cls-1 {
        stroke-width: 3.5px;
      }

      .cls-1, .cls-2 {
        fill: none;
        stroke: #d4a85a;
        stroke-miterlimit: 10;
      }

      .cls-3 {
        fill: #d4a85a;
      }

      .cls-2 {
        stroke-linecap: round;
        stroke-width: 2px;
      }
    </style>
  </defs>
  <!-- Generator: Adobe Illustrator 28.7.3, SVG Export Plug-In . SVG Version: 1.2.0 Build 164)  -->
  <g>
    <g id="Layer_1">
      <g id="Layer_1-2" data-name="Layer_1">
        <circle class="cls-3" cx="26.1" cy="25.7" r="2.8"/>
        <line class="cls-2" x1="26.1" y1="23" x2="26.1" y2="13.6"/>
        <line class="cls-2" x1="27.9" y1="27" x2="33.5" y2="29.5"/>
        <path class="cls-1" d="M40,33.4l-13.2,22.9c-1.1,1.9.3,4.3,2.5,4.3h26.4c2.2,0,3.6-2.4,2.5-4.3l-13.2-22.9c-1.1-1.9-3.9-1.9-5,0Z"/>
        <path class="cls-3" d="M41,55.4c0-.9.7-1.6,1.5-1.6s1.5.7,1.5,1.6-.6,1.6-1.5,1.6-1.5-.7-1.5-1.6ZM41.6,51.6l-.4-12.6h2.5l-.4,12.6h-1.8.1Z"/>
        <path class="cls-1" d="M34.5,42.9c-2.5,1.2-5.4,1.9-8.4,1.9-10.6,0-19.2-8.6-19.2-19.2S15.5,6.5,26.1,6.5s19.2,8.6,19.2,19.2-.4,4.3-1.1,6.3"/>
        <line class="cls-1" x1="26.1" y1="6.5" x2="26.1" y2="2.1"/>
      </g>
    </g>
  </g>
</svg>