<?xml version="1.0" encoding="UTF-8"?>
<svg xmlns="http://www.w3.org/2000/svg" version="1.1" viewBox="0 0 64 64">
  <defs>
    <style>
      .cls-1 {
        fill: none;
        stroke: #d4a85a;
        stroke-linecap: round;
        stroke-miterlimit: 10;
        stroke-width: 3.5px;
      }
    </style>
  </defs>
  <!-- Generator: Adobe Illustrator 28.7.3, SVG Export Plug-In . SVG Version: 1.2.0 Build 164)  -->
  <g>
    <g id="Layer_1">
      <circle class="cls-1" cx="32.5" cy="32" r="6.3"/>
      <line class="cls-1" x1="32.5" y1="25.7" x2="32.5" y2="4.9"/>
      <line class="cls-1" x1="32.5" y1="59.1" x2="32.5" y2="38.3"/>
      <polyline class="cls-1" points="25.5 7.8 32.5 14.2 39.4 7.8"/>
      <polyline class="cls-1" points="39.4 56.2 32.5 49.8 25.5 56.2"/>
      <polyline class="cls-1" points="39.4 56.2 32.5 49.8 25.5 56.2"/>
      <polyline class="cls-1" points="8.5 24.4 17.6 22.2 16.1 12.9"/>
      <polyline class="cls-1" points="56.5 39.5 47.4 41.8 48.9 51.1"/>
      <line class="cls-1" x1="27.2" y1="28.5" x2="9.9" y2="17.1"/>
      <line class="cls-1" x1="55.1" y1="46.9" x2="37.7" y2="35.4"/>
      <polyline class="cls-1" points="56.5 39.5 47.4 41.8 48.9 51.1"/>
      <polyline class="cls-1" points="56.5 24.4 47.4 22.2 48.9 12.9"/>
      <polyline class="cls-1" points="8.5 39.5 17.6 41.8 16.1 51.1"/>
      <line class="cls-1" x1="37.7" y1="28.5" x2="55.1" y2="17.1"/>
      <line class="cls-1" x1="9.9" y1="46.9" x2="27.2" y2="35.4"/>
      <polyline class="cls-1" points="8.5 39.5 17.6 41.8 16.1 51.1"/>
    </g>
  </g>
</svg>