<?xml version="1.0" encoding="UTF-8"?>
<svg xmlns="http://www.w3.org/2000/svg" xmlns:xlink="http://www.w3.org/1999/xlink" version="1.1" viewBox="0 0 64 64">
  <defs>
    <style>
      .cls-1 {
        stroke-width: 3.5px;
      }

      .cls-1, .cls-2 {
        fill: none;
        stroke: #d4a85a;
        stroke-miterlimit: 10;
      }

      .cls-3 {
        opacity: .3;
      }

      .cls-2 {
        stroke-width: 2px;
      }
    </style>
  </defs>
  <!-- Generator: Adobe Illustrator 28.7.3, SVG Export Plug-In . SVG Version: 1.2.0 Build 164)  -->
  <g>
    <g id="Layer_1">
      <image class="cls-3" width="1280" height="1024" transform="translate(-428.9 -139.9) scale(.4)" xlink:href="../../../../file_00000000d04c720abc06b7919c0f71fc(1).png"/>
      <ellipse class="cls-1" cx="31.6" cy="12.8" rx="19.5" ry="6.8"/>
      <path class="cls-2" d="M19.6,12.8c0-1.6,5.3-2.8,11.9-2.8s11.9,1.3,11.9,2.8-7.3,2.2-13.8,2.2"/>
      <path class="cls-1" d="M51.1,12.8v39.5c0,3.8-8.7,6.8-19.5,6.8s-19.5-3.1-19.5-6.8V12.8"/>
      <path class="cls-2" d="M51.1,45.4c0,3.8-8.7,6.8-19.5,6.8s-19.5-3.1-19.5-6.8"/>
      <path class="cls-2" d="M51.1,20.6c0,3.8-8.7,6.8-19.5,6.8s-19.5-3.1-19.5-6.8"/>
    </g>
  </g>
</svg>