<?xml version="1.0" encoding="UTF-8"?>
<svg xmlns="http://www.w3.org/2000/svg" xmlns:xlink="http://www.w3.org/1999/xlink" version="1.1" viewBox="0 0 64 64">
  <defs>
    <style>
      .cls-1 {
        stroke-width: 3.5px;
      }

      .cls-1, .cls-2 {
        fill: none;
        stroke: #d4a85a;
        stroke-miterlimit: 10;
      }

      .cls-3 {
        opacity: .3;
      }

      .cls-2 {
        stroke-width: 2px;
      }
    </style>
  </defs>
  <!-- Generator: Adobe Illustrator 28.7.3, SVG Export Plug-In . SVG Version: 1.2.0 Build 164)  -->
  <g>
    <g id="Layer_1">
      <image class="cls-3" width="1280" height="1024" transform="translate(-32.7 -116.7) scale(.4)" xlink:href="../../../../file_00000000d04c720abc06b7919c0f71fc(1).png"/>
      <path class="cls-1" d="M32.6,2.4h3.7c.9,0,1.7.8,1.7,1.7v3.3c0,.9-.8,1.7-1.7,1.7h-.2s.2,1.8,1.2,2.8,4,5,5.6,7.1.9,1.6.9,2.6v5.2c0,.4-.2.7-.4,1l-1,1c-.6.6-.6,1.5,0,2l1,1c.3.3.4.6.4,1v2.1c0,.4-.2.7-.4,1l-.6.6c-.6.6-.6,1.5,0,2l.7.7c.3.3.4.6.4,1v2.5c0,.5-.3,1-.7,1.2h0c-.9.5-.9,1.7-.1,2.4l.3.2c.3.3.6.7.6,1.1v8.5c0,2.4-2,4.4-4.4,4.4h-7.5"/>
      <path class="cls-1" d="M32.6,2.4h-5.6c-.9,0-1.7.8-1.7,1.7v3.3c0,.9.8,1.7,1.7,1.7h.2s-.2,1.8-1.2,2.8-4,5-5.6,7.1-.9,1.6-.9,2.6v5.2c0,.4.2.7.4,1l1,1c.6.6.6,1.5,0,2l-1,1c-.3.3-.4.6-.4,1v2.1c0,.4.2.7.4,1l.6.6c.6.6.6,1.5,0,2l-.7.7c-.3.3-.4.6-.4,1v2.5c0,.5.3,1,.7,1.2h0c.9.5.9,1.7.1,2.4l-.3.2c-.3.3-.6.7-.6,1.1v8.5c0,2.4,2,4.4,4.4,4.4h9.4"/>
      <line class="cls-2" x1="27.2" y1="8.1" x2="36.1" y2="8.1"/>
      <line class="cls-2" x1="19.6" y1="22.2" x2="43.8" y2="22.2"/>
      <line class="cls-2" x1="21" y1="37.9" x2="42.3" y2="37.9"/>
      <line class="cls-2" x1="21" y1="45.4" x2="42.3" y2="45.4"/>
      <line class="cls-2" x1="20.4" y1="29.6" x2="43" y2="29.6"/>
    </g>
  </g>
</svg>