<?xml version="1.0" encoding="UTF-8"?>
<svg xmlns="http://www.w3.org/2000/svg" xmlns:xlink="http://www.w3.org/1999/xlink" version="1.1" viewBox="0 0 64 64">
  <defs>
    <style>
      .cls-1 {
        stroke-width: 3.5px;
      }

      .cls-1, .cls-2, .cls-3 {
        fill: none;
        stroke: #d4a85a;
        stroke-miterlimit: 10;
      }

      .cls-4 {
        opacity: .3;
      }

      .cls-2 {
        stroke-linecap: round;
      }

      .cls-2, .cls-3 {
        stroke-width: 2px;
      }
    </style>
  </defs>
  <!-- Generator: Adobe Illustrator 28.7.3, SVG Export Plug-In . SVG Version: 1.2.0 Build 164)  -->
  <g>
    <g id="Layer_1">
      <image class="cls-4" width="1280" height="1024" transform="translate(-244.9 -216.3) scale(.4)" xlink:href="../../../../file_00000000d04c720abc06b7919c0f71fc(1).png"/>
      <path class="cls-1" d="M28.7,16.7c-.3-4.3-10.4-5.3-14.8-5.6s-2-1-2-2.1v-2.8c0-1.2,1-2.1,2.1-2.1h22.6c.9,0,1.8.2,2.7.6,2.2,1,6.3,3.1,8,5.8s0,2.5-1.3,2.7l-3.2.5s-4,.2-4.6,2.5v7.9"/>
      <line class="cls-1" x1="29" y1="24.6" x2="29" y2="16.7"/>
      <line class="cls-3" x1="28.4" y1="16.7" x2="39.9" y2="16.7"/>
      <line class="cls-3" x1="39.9" y1="24.6" x2="26.5" y2="24.6"/>
      <path class="cls-1" d="M38.2,23.7c6.5,9.4,8.5,19.9,8.5,19.9v12.8c0,1.9-1.6,3.5-3.5,3.5h-22.7c-1.9,0-3.5-1.6-3.5-3.5v-13.7c0-2,1-3.9,2.7-5l3.4-2.2c1.2-1.3,1.9-2.9,1.9-4.7v-3.1s.9-3.1,2.7-3.1"/>
      <path class="cls-2" d="M19.6,12.4s-1.3,7.7-4.2,10.4-1,1.2-1,2v.2c.5.9,1.5.7,2.4.3,4-1.9,8.3-7.5,8.5-11.1"/>
      <line class="cls-3" x1="18.6" y1="4" x2="18.6" y2="11.1"/>
    </g>
  </g>
</svg>