<?xml version="1.0" encoding="UTF-8"?>
<svg xmlns="http://www.w3.org/2000/svg" xmlns:xlink="http://www.w3.org/1999/xlink" version="1.1" viewBox="0 0 64 64">
  <defs>
    <style>
      .cls-1 {
        stroke-width: 3px;
      }

      .cls-1, .cls-2 {
        fill: none;
        stroke: #d4a85a;
        stroke-miterlimit: 10;
      }

      .cls-3 {
        opacity: .3;
      }

      .cls-2 {
        stroke-width: 2px;
      }
    </style>
  </defs>
  <!-- Generator: Adobe Illustrator 28.7.3, SVG Export Plug-In . SVG Version: 1.2.0 Build 164)  -->
  <g>
    <g id="Layer_1">
      <image class="cls-3" width="1280" height="1024" transform="translate(-290.2 -19.1) scale(.4)" xlink:href="../../../../file_00000000d04c720abc06b7919c0f71fc(1).png"/>
      <path class="cls-1" d="M8.1,39.3c-1.2-1.5-1.9-3.2-2.1-5.1-.4-4.7.8-13.7,14.6-19.5s31-3,34.1-.3c3.5,3.1,5,13.1-4.1,16.8-2,.8-3.9,2-5.4,3.6s-2,2.2-2.8,3.4c-1.9,3-21.3,17.3-34.2,1.1Z"/>
      <path class="cls-2" d="M12.4,36.6c-.9-1.1-1.5-2.4-1.6-3.7-.3-3.5,2.3-11.3,12.9-15.6,14.9-6,24-2.2,26.3-.2,2.7,2.3,4.2,7.9-2.8,10.5-1.6.6-6.7,4.5-7.9,5.6s-1.6,1.7-2.2,2.5c-1.5,2.2-14.8,12.7-24.8.8Z"/>
      <path class="cls-1" d="M57.4,20.3l.5,13.4c-.6,4-2.1,6.8-7.4,8.9-2,.8-3.9,2-5.4,3.6s-2,2.2-2.8,3.4c-1.9,3-21.3,17.3-34.2,1.1-1.2-1.5-1.9-3.2-2.1-5.1v-12.6"/>
      <ellipse class="cls-2" cx="23.9" cy="31.7" rx="5.1" ry="3.7"/>
    </g>
  </g>
</svg>