<?xml version="1.0" encoding="UTF-8"?>
<svg xmlns="http://www.w3.org/2000/svg" xmlns:xlink="http://www.w3.org/1999/xlink" version="1.1" viewBox="0 0 64 64">
  <defs>
    <style>
      .cls-1 {
        stroke-width: 3.5px;
      }

      .cls-1, .cls-2 {
        fill: none;
        stroke: #d4a85a;
        stroke-miterlimit: 10;
      }

      .cls-3 {
        opacity: .3;
      }

      .cls-2 {
        stroke-linecap: round;
        stroke-width: 2px;
      }
    </style>
  </defs>
  <!-- Generator: Adobe Illustrator 28.7.3, SVG Export Plug-In . SVG Version: 1.2.0 Build 164)  -->
  <g>
    <g id="Layer_1">
      <image class="cls-3" width="1280" height="1024" transform="translate(-41.9 -27) scale(.4)" xlink:href="../../../../file_00000000d04c720abc06b7919c0f71fc(1).png"/>
      <path class="cls-1" d="M31.2,24.6s10.8-8.6,19.6-.7,3.1,22.5-4.1,31.6c-3,3.8-5,5.7-9.8,4.9s-1.4-.3-1.9-.6c-1.6-.8-3.7-.7-3.7-.7h-1.2s-2.1,0-3.7.7-1.2.4-1.9.6c-4.8.8-6.8-1.1-9.8-4.9-7.2-9.1-10.3-25-3.5-31.1s20,.2,20,.2"/>
      <path class="cls-2" d="M24.3,5s7.7,11.2,6.4,22.4"/>
      <path class="cls-2" d="M24.3,26.6s6.2,5.3,12.3,0"/>
      <path class="cls-2" d="M30.5,17.1s.5-15.1,16.6-15.3c0,0,3.4,13.7-16.6,15.3Z"/>
    </g>
  </g>
</svg>