<?xml version="1.0" encoding="UTF-8"?>
<svg xmlns="http://www.w3.org/2000/svg" xmlns:xlink="http://www.w3.org/1999/xlink" version="1.1" viewBox="0 0 64 64">
  <defs>
    <style>
      .cls-1 {
        stroke-width: 3.5px;
      }

      .cls-1, .cls-2 {
        fill: none;
        stroke: #d4a85a;
        stroke-miterlimit: 10;
      }

      .cls-3 {
        opacity: .4;
      }

      .cls-2 {
        stroke-width: 2px;
      }
    </style>
  </defs>
  <!-- Generator: Adobe Illustrator 28.7.3, SVG Export Plug-In . SVG Version: 1.2.0 Build 164)  -->
  <g>
    <g id="Layer_1">
      <g id="_x32_XLblv" class="cls-3">
        <image id="_x32_XLblv-2" data-name="_x32_XLblv" width="700" height="1080" transform="translate(11.4 2.8) scale(0)" xlink:href="category-condiments-oils-1.png"/>
      </g>
      <path class="cls-1" d="M32,3.6h7.1c4.2,0,7.3,3.9,6.3,8-1.2,5.1-2.6,11.1-2.6,13.2,0,3.9,2.5,7.9,2.5,11.6s-6.7,10.7-6.7,14.4"/>
      <path class="cls-1" d="M32,3.6h-7.1c-4.2,0-7.3,3.9-6.3,8,1.2,5.1,2.6,11.1,2.6,13.2,0,3.9-2.5,7.9-2.5,11.6s6.7,10.7,6.7,14.4"/>
      <path class="cls-2" d="M23.9,50.8h16.1v7c0,1.8-1.4,3.2-3.2,3.2h-9.7c-1.8,0-3.2-1.4-3.2-3.2v-7h0Z"/>
      <line class="cls-2" x1="23.9" y1="55.8" x2="40.4" y2="55.8"/>
      <rect class="cls-2" x="26.8" y="11.1" width="10.5" height="27.8" rx="3.1" ry="3.1"/>
      <line class="cls-2" x1="26.8" y1="55.8" x2="40.4" y2="55.8"/>
    </g>
  </g>
</svg>