<?xml version="1.0" encoding="UTF-8"?>
<svg xmlns="http://www.w3.org/2000/svg" xmlns:xlink="http://www.w3.org/1999/xlink" version="1.1" viewBox="0 0 64 64">
  <defs>
    <style>
      .cls-1 {
        stroke-width: 3px;
      }

      .cls-1, .cls-2 {
        fill: none;
        stroke: #d4a85a;
        stroke-miterlimit: 10;
      }

      .cls-3 {
        fill: #d4a85a;
      }

      .cls-4 {
        opacity: .3;
      }

      .cls-2 {
        stroke-width: 2px;
      }
    </style>
  </defs>
  <!-- Generator: Adobe Illustrator 28.7.3, SVG Export Plug-In . SVG Version: 1.2.0 Build 164)  -->
  <g>
    <g id="Layer_1">
      <image class="cls-4" width="1280" height="1024" transform="translate(-139.3 -139.9) scale(.4)" xlink:href="../../../../file_00000000d04c720abc06b7919c0f71fc(1).png"/>
      <path class="cls-2" d="M54,30.1c0-6.1-4.9-11-11-11s-1.1,0-1.6.1c-.5-.8-1-1.5-1.7-2.1-2-2-4.7-3.2-7.7-3.2s-7.5,2.1-9.4,5.3c-.5,0-1.1-.1-1.6-.1-6.1,0-11,4.9-11,11"/>
      <path class="cls-1" d="M3,29.1s-5.5,30,28,30,30.2-30,30.2-30"/>
      <path class="cls-1" d="M52.3,24.2c5.4,1.2,8.7,3,8.7,4.9,0,3.8-13,6.8-29.1,6.8s-29.1-3.1-29.1-6.8,3.3-3.6,8.5-4.8"/>
      <circle class="cls-3" cx="31.9" cy="21.4" r="2.8"/>
      <g>
        <circle class="cls-3" cx="21.4" cy="27.4" r="2.8"/>
        <circle class="cls-3" cx="42.4" cy="27.4" r="2.8"/>
      </g>
      <path class="cls-2" d="M49.7,21.4l10.4-9.9c1.9-1.8,1.4-4.9-1-5.9l-.7-.3c-1.8-.8-3.9-.1-4.8,1.6l-9.7,11.8"/>
    </g>
  </g>
</svg>