<?xml version="1.0" encoding="UTF-8"?>
<svg xmlns="http://www.w3.org/2000/svg" xmlns:xlink="http://www.w3.org/1999/xlink" version="1.1" viewBox="0 0 64 64">
  <defs>
    <style>
      .cls-1, .cls-2 {
        fill: #d4a85a;
      }

      .cls-2 {
        opacity: .8;
      }

      .cls-3 {
        opacity: .3;
      }

      .cls-4 {
        fill: none;
        stroke: #d4a85a;
        stroke-linecap: round;
        stroke-miterlimit: 10;
        stroke-width: 2px;
      }
    </style>
  </defs>
  <!-- Generator: Adobe Illustrator 28.7.3, SVG Export Plug-In . SVG Version: 1.2.0 Build 164)  -->
  <g>
    <g id="Layer_1">
      <image class="cls-3" width="1280" height="1024" transform="translate(-321.9 -134.1) scale(.4)" xlink:href="../../../../file_00000000d04c720abc06b7919c0f71fc(1).png"/>
      <path class="cls-4" d="M58.1,44.4l-8.7-14.9c-2.4-4.1-8.3-4.3-10.9-.3l-9.9,15.1c-.6.9,0,2.1,1,2.3,4.6.9,16.1,2.4,27.5,0,1-.2,1.5-1.3,1-2.2Z"/>
      <circle class="cls-1" cx="21.8" cy="23.7" r=".9"/>
      <circle class="cls-1" cx="26.4" cy="25.6" r=".9"/>
      <circle class="cls-1" cx="31.2" cy="22.2" r=".9"/>
      <circle class="cls-1" cx="27.3" cy="20.7" r=".9"/>
      <circle class="cls-1" cx="32.2" cy="26.5" r=".9"/>
      <circle class="cls-1" cx="21.8" cy="29.7" r=".9"/>
      <circle class="cls-1" cx="28.3" cy="30.4" r=".9"/>
      <circle class="cls-1" cx="23.3" cy="32.7" r=".9"/>
      <circle class="cls-1" cx="33.1" cy="31.4" r=".9"/>
      <path class="cls-4" d="M40.5,27.3l-4.3-7.4c-3.4-5.9-11.8-6.1-15.5-.4l-14.9,22.7c-.4.7,0,1.4.7,1.7,3.2,1.1,7.7,2.6,21.3,1.9"/>
      <path class="cls-2" d="M58.2,44.6l-8.8-15.1c-2.4-4.1-8.3-4.3-10.9-.3l-10,15.3c-.5.8,0,1.8.9,1.9,4.8.7,17.5,2,28,0s1.3-1.1.9-1.8ZM37.9,37.2c-.5,0-.9-.4-.9-.9s.4-.9.9-.9.9.4.9.9-.4.9-.9.9ZM41.4,40.6c-.5,0-.9-.4-.9-.9s.4-.9.9-.9.9.4.9.9-.4.9-.9.9ZM42,35.7c-.5,0-.9-.4-.9-.9s.4-.9.9-.9.9.4.9.9-.4.9-.9.9ZM43,30.9c-.5,0-.9-.4-.9-.9s.4-.9.9-.9.9.4.9.9-.4.9-.9.9ZM46.2,36.7c-.5,0-.9-.4-.9-.9s.4-.9.9-.9.9.4.9.9-.4.9-.9.9ZM46.2,32.6c-.5,0-.9-.4-.9-.9s.4-.9.9-.9.9.4.9.9-.4.9-.9.9ZM48.7,41.5c-.5,0-.9-.4-.9-.9s.4-.9.9-.9.9.4.9.9-.4.9-.9.9ZM50,39c-.5,0-.9-.4-.9-.9s.4-.9.9-.9.9.4.9.9-.4.9-.9.9Z"/>
    </g>
  </g>
</svg>