<?xml version="1.0" encoding="UTF-8"?>
<svg xmlns="http://www.w3.org/2000/svg" version="1.1" viewBox="0 0 400 400">
  <defs>
    <style>
      .cls-1 {
        fill: #00442f;
      }

      .cls-2 {
        fill: #fbf8d5;
      }
    </style>
  </defs>
  <!-- Generator: Adobe Illustrator 28.7.3, SVG Export Plug-In . SVG Version: 1.2.0 Build 164)  -->
  <g>
    <g id="Layer_1">
      <g id="Layer_1-2" data-name="Layer_1">
        <rect class="cls-1" x="-6.2" y="-6.5" width="414.2" height="414.2"/>
        <g id="z4tGH6">
          <g>
            <path class="cls-2" d="M147.6,254.9c-.8-.1-1.7-.2-2.5-.3-3.5-.4-6.8-1.4-10-2.7-2.9-1.2-5.6-2.7-8.1-4.4-2.8-1.9-5.1-4.2-7.1-6.9-2.5-3.3-4.6-6.8-6.1-10.6-.9-2.3-1.5-4.7-2-7.2-.3-1.4-.7-2.8-.9-4.3-.2-1.3-.4-2.5-.5-3.8-.3-2.3-.7-4.6-1-6.9-.4-3.2-.9-6.4-1.5-9.6-.2-1.2-.3-2.4-.5-3.6-.2-1.5-1.1-2.3-2.5-2.8-3.7-1.3-6.1-3.8-7.2-7.5-1-3.3-.7-6.4,1.1-9.3,1.3-2.2,3.3-3.9,5.7-4.8,1.3-.5,1.7-1.1,1.8-2.5.2-1.9.2-3.8.5-5.7.4-2.9,1-5.7,1.6-8.5,1.1-4.7,2.7-9.3,4.6-13.7.6-1.4,1.4-2.8,2.2-4.1,0,0,0-.1.1-.2.9-1.4,1.9-1.4,2.9,0,.3.4.6.9.9,1.3.8,1.3.8,2.6.2,4-1.1,2.7-2.3,5.2-3.2,7.9-.9,2.8-1.7,5.5-2.2,8.4-.4,1.9-.8,3.8-1,5.7-.2,1.6-.4,3.2-.4,4.8,0,1.3.5,1.9,1.8,2,2,0,4,.1,5.9,0,.2,0,.4,0,.7,0,5.9,0,11.7,0,17.6,0,9.1.1,18.3,0,27.4,0,3.3,0,6.6.1,9.9,0,1.9,0,3.8.1,5.6.1,3.4,0,6.8,0,10.2-.1,3-.1,5.9-.1,8.9,0,2.1,0,4.2.1,6.4,0,3.2-.1,6.4-.1,9.6,0,9.2.2,18.3,0,27.5,0,2.6,0,5.2-.1,7.9,0,4.7.1,9.4.1,14.1,0,2.8,0,5.6-.1,8.3,0,2.1,0,4.2,0,6.2,0,2,0,4,0,6.1,0,1.3,0,1.9-.6,1.9-1.9,0-2.5-.3-5.1-.7-7.6-.5-3.8-1.3-7.5-2.5-11.2-.2-.5-.2-1.1-.2-1.7,0-1.7,2.2-3.3,3.4-3.4.8,0,1.3.3,1.6,1,.6,1,1,2.1,1.3,3.3.5,1.7,1,3.5,1.4,5.3.5,1.9.7,3.9,1,5.9.5,2.9.7,5.9.8,8.8,0,1.2.6,1.8,1.7,2.2,1.8.7,3.4,1.7,4.6,3.1,1.3,1.6,2.3,3.4,2.6,5.5,0,.1,0,.3.1.4v4.1c0,.1,0,.2-.1.3-.8,4.2-3.5,6.9-7.4,8.4-1.5.6-2.2,1.4-2.4,2.9-.4,2.5-.7,5.1-1.1,7.6-.5,3.1-.9,6.1-1.4,9.2-.6,3.7-1.3,7.5-2.1,11.2-.8,3.5-1.8,6.8-3.3,10.1-1.6,3.5-3.8,6.7-6.3,9.6-1.7,2-3.8,3.6-5.9,5.1-2.3,1.6-4.8,3-7.4,4.1-3,1.3-6.2,2.3-9.5,2.8-1.2.2-2.4.3-3.6.5h-105.6ZM118.2,192.3c-1.2,0-2.3,0-3.5.1-1.1,0-1.6.6-1.5,1.7,0,1.1.2,2.1.4,3.1.4,2.9.9,5.7,1.5,8.6.6,3.2.9,6.5,1.5,9.8.4,2.3.7,4.5,1.2,6.8.5,2.4,1.2,4.8,2.2,7.2.8,1.9,1.7,3.7,3,5.3,1.6,2.1,3.4,4,5.4,5.8,1.4,1.2,2.8,2.4,4.4,3.4,3.2,1.9,6.5,3.3,10.2,4.1,2.8.6,5.7,1,8.6,1,11.9,0,23.8,0,35.7,0,21.1,0,42.2,0,63.3,0,2.9,0,5.7-.5,8.5-1.2,3.2-.8,6.2-2.1,9-3.8,1.6-.9,3.1-2,4.6-3.2,1.3-1.1,2.7-2.3,3.7-3.6,2.1-2.7,3.7-5.7,5-8.8,1.7-4,2.5-8.2,3.3-12.4.4-2,.6-4,.9-6,.2-1.3.5-2.5.7-3.8.6-3.9,1.2-7.7,1.7-11.6.2-1.5-.2-2.1-1.8-2.3,0,0-.2,0-.2,0-3.1,0-6.2,0-9.2,0-4.7,0-9.4,0-14.2,0-4.6,0-9.2.1-13.9,0-2.4,0-4.8,0-7.3,0-2.2,0-4.4,0-6.7,0-10,.1-20.1,0-30.1.1-2,0-4,0-6.1,0-2.6-.1-5.3-.1-7.9-.1-.7,0-1.4.1-2.2,0-3.2,0-6.5,0-9.7,0-5.3,0-10.5,0-15.8,0-6.6,0-13.2,0-19.8,0-6.8-.2-13.6,0-20.5,0-1.5,0-3-.2-4.4,0ZM113.8,175.2c-1.7-.1-3.3.1-5,.1-.6,0-1.2.1-1.8.3-2.3.8-3.6,2.4-3.8,4.9,0,1.2,0,2.4.8,3.4,1.3,1.8,3,2.6,5.2,2.6,10.5,0,21.1,0,31.6,0,48.7,0,97.5-.1,146.2.1,1.7,0,3.4,0,5.2-.1,2-.1,3.7-.8,4.8-2.6,1.8-2.9.8-6.5-2.4-7.9-1.4-.7-3-.8-4.5-.8-4.4,0-8.8,0-13.2,0-4.4,0-8.9,0-13.3,0-2.7,0-5.4,0-8.2,0-5.2,0-10.4,0-15.7,0-2.7,0-5.4,0-8,0-15.3,0-30.7.1-46,0-3,0-6,0-9.1,0-10.8,0-21.6.1-32.4,0-2.6,0-5.3,0-7.9,0-7.5,0-15.1.1-22.6,0Z"/>
            <path class="cls-2" d="M300.6,101.3c.1,2.7-.6,5.2-2.2,7.5-.2.3-.4.5-.6.7-.8.9-.8,1.6-.2,2.6.6.9,1.2,1.7,1.7,2.7,1.5,3,2.1,6.1,1.6,9.4-.3,2.3-1,4.4-2.2,6.4-1.8,3-4.4,4.9-7.6,6.1-2.2.8-4.4,1.1-6.6,1-1.4,0-2.5.3-3.3,1.5-2.1,2.8-5.1,4.7-8,6.5-3.1,2-6.4,3.6-9.6,5.3-1.5.8-2.2,2.1-2.7,3.7-.7,2.3-1.1,4.6-1.6,6.9-.3,1.2-.7,2.3-1.9,2.9-.9.4-1.8.3-2.6-.3-.8-.6-1.1-1.4-.9-2.3.3-1.5.7-2.9,1-4.4.4-2.2.9-4.4,1.3-6.5.4-1.8,0-3.5-.4-5.3-.8-3.2-1.8-6.4-2.8-9.5-.6-1.9-1.1-3.8-2.1-5.5-.4-.7-1-1.1-1.8-1.3-1.4-.3-2.7-.8-3.9-1.4-1.6-.8-3-1.9-4.2-3.3-1.1-1.3-2.1-2.7-2.8-4.3-.9-2.2-1.5-4.4-1.7-6.8-.1-2.8.5-5.5,1.7-8.1.8-1.7,2-3.2,3.4-4.5.8-.8,1-1.7.7-2.8-1-3.4-.9-6.9.3-10.3.5-1.6,1.6-2.8,2.8-4,2.5-2.6,5.7-3.7,9.3-3.6,1.2,0,2.4.2,3.5.7,1.2.5,2,0,2.6-.9,1.7-2.3,3.7-4.2,6.4-5.3,2.2-.9,4.4-1.1,6.7-.9,3.4.3,6.4,1.5,8.8,4,1.8,1.8,3.1,3.7,3.9,6.1.3.9.4,1.8.7,2.7.2.9.7,1.4,1.7,1.6,1.4.3,2.9.5,4.2,1.1,3.1,1.4,5.3,3.6,6.5,6.8.4.9.6,1.8.7,2.7.1.8,0,1.6.1,2.4ZM283.5,132.8c1.6,0,3.1,0,4.5-.4,2.3-.7,4.2-2,5.8-3.9,2-2.3,2.6-5,2.2-8-.3-2-1.1-3.8-2.6-5.2-.9-.8-1.9-1.5-2.8-2.2-1.8-1.3-1.8-3.1,0-4.4.6-.4,1.1-.8,1.7-1.2,1-.8,2.1-1.6,2.6-2.8,1.3-3,1.1-5.9-1.1-8.5-1.2-1.4-2.7-2.4-4.6-2.7-1.1-.2-2.2,0-3.3,0-1.7.2-2.8-.5-3.3-2.1-.2-.6-.2-1.2-.1-1.8.3-4.3-2.2-8.6-6.3-10.1-2.4-.9-4.8-1.1-7.2,0-2.2,1.1-3.9,2.7-4.8,5-.2.7-.5,1.3-.8,1.9-.5,1.2-1.4,1.6-2.7,1.5-.6,0-1.1-.4-1.5-.8-1.3-.9-2.7-1.7-4.4-1.8-2.3-.1-4.4.4-6,2.1-1.8,1.8-2.1,4.1-2,6.5,0,1.8.7,3.5,1.6,5.1.5,1,.7,2.1,0,3.1-.4.6-1,1-1.6,1.4-1.4,1-2.8,2-3.7,3.5-1.7,2.8-2.1,5.8-1.1,9,.9,2.8,2.4,5.1,4.7,6.8,1.7,1.3,3.7,2,5.7,2.7,1.5.5,2.7,1.4,3.1,3,.8,2.9,2.2,5.5,3,8.4.1.4.3,1,.8,1,.5,0,.7-.6.8-1,.4-1.1.6-2.3.9-3.4.4-2.1,1.1-4.1,1.4-6.1.2-1.7.4-3.4-.3-5-1.3-3.2-2.5-6.3-4.2-9.4-.7-1.2-1.4-2.4-1.9-3.7-.2-.5-.4-1.1-.2-1.7.5-1.6,2.6-2.2,3.8-1,.5.5,1,1.1,1.3,1.8.6,1.3,1.4,2.5,1.9,3.9.3.8.7,1.5,1.2,2.2.7.8.8.6,1.3-.1,0,0,0-.2,0-.3.6-1.9.9-3.9,1.3-5.8.6-3.2,1.1-6.3,1.8-9.5.2-1.1.3-2.2.8-3.2.5-.9,1.3-1.5,2.2-1.4.9,0,1.7.8,2,1.7.2.8.1,1.6,0,2.4-.3,2-.7,4-.9,6-.4,3.1-1.1,6-1.7,9.1-.3,1.8-.8,3.6-1.2,5.4,0,.4,0,.8.3,1.1.4.3.7,0,1.1-.2,1.7-1.1,3.2-2.5,4.9-3.7,1-.7,1.9-1.4,3-1.9.9-.4,2-.1,2.5.6.6.7.6,1.6,0,2.5-.4.6-.8,1.1-1.3,1.5-2,1.7-3.9,3.5-6,5-1.8,1.3-3.4,2.8-5.2,4.1-1.1.8-1.8,1.8-2.2,3.1-.4,1.2-.6,2.5-.9,3.8-.7,2.8-1.4,5.5-1.9,8.3-.2.9.4,1.5,1.3,1.2,1-.3,1.8-.8,2.7-1.3,3.3-1.8,6.4-3.9,9-6.7.7-.7,1.2-1.6,1.9-2.3.8-.9,1.7-1.4,3-1.3.6,0,1.2,0,1.7,0Z"/>
            <path class="cls-2" d="M148.6,111.8c-2.1,0-4.1.5-6,1.3-2.4,1-4.9,1.6-7.3,2.2-2.6.6-4.6,1.9-6,4.2-.7,1.1-.9,2.4-1,3.7-.2,2.8.3,5.4,1.2,8,.9,2.7,2.1,5.3,3.3,7.8.8,1.5,1.5,1.7,3.1,1,2.4-1.1,4.8-2.3,7.3-3.2.6-.2,1.3-.5,2-.5,1.4,0,2.4,1.6,1.7,2.9-.4.8-1,1.3-1.8,1.7-2,1.1-4.1,1.9-6.2,2.8-.6.2-1.1.5-1.7.8-.8.4-1,1-.7,1.8.6,1.5,1.4,3,2.1,4.4,1.7,3.4,3.2,6.9,4.8,10.4.6,1.2,1,2.5,1.2,3.8.2,1.2-.5,2-1.8,2.1-1,0-1.8-.3-2.4-1.2-.9-1.2-1.5-2.6-2.1-3.9-2.5-5.1-5-10.2-7.4-15.3-1.3-2.6-2.6-5.2-3.9-7.8-1.4-2.9-2.8-5.9-3.6-9.1-.9-3.5-1.1-7.1.3-10.5.9-2.3,2.2-4.4,4.2-6.1.9-.8,1-1.3.2-2.3-1-1.2-2.2-2.2-3.3-3.3-1-.9-2-1.9-3.1-2.7-1.1-.9-2.3-1.8-3.5-2.6-2.7-1.9-5.7-3.4-8.6-4.9-1-.5-2-.9-3-1.3-1-.4-1.8-1-2.1-2.1-.4-1.7,1-3.2,2.7-2.9,1.8.3,3.4,1,5,1.8,2.9,1.4,5.7,3,8.3,4.9,2.9,2,5.7,4,8.2,6.4.2.2.5.4.7.6.2.1.4.3.7.2.3-.2.2-.5.1-.7,0-.3-.2-.6-.3-.9-1.4-3.7-2.9-7.4-4.6-11.1-2-4.3-4.4-8.4-6.6-12.7-.5-.9-.9-1.9-.6-3,.4-1.6,2-2.3,3.4-1.4.8.5,1.3,1.3,1.8,2.1,1.8,3.1,3.7,6.2,5.3,9.5,1.9,3.8,3.6,7.7,5.2,11.6.4,1,.8,2,1.3,3,.1.3.3.8.7.7.4,0,.4-.5.5-.9.3-1.5.3-3.1.5-4.6.3-2.2.7-4.3,1-6.5.4-2.4,1-4.8,1.8-7.1.2-.7.6-1.3,1.1-1.8.6-.7,1.4-.9,2.3-.6.9.3,1.3,1.1,1.4,2,.1,1.1-.1,2.2-.5,3.2-.7,2.1-1.1,4.3-1.4,6.5-.3,2.7-.7,5.4-.9,8-.2,1.8-.2,3.7-.3,5.5,0,.3,0,.5,0,.8.1.8.7,1.2,1.4,1,1-.2,1.9-.5,2.9-.6,2.8-.5,5.5-.6,8.2.4,1.7.6,3,1.7,4.2,3,2.3,2.4,3.8,5.3,5.2,8.3,2,4.4,3.4,9,4.7,13.6.8,3.1,1.6,6.1,2.4,9.2.8,3.2,1.7,6.4,2.5,9.7.7,2.9,1.3,5.9,2,8.8.4,1.4.6,2.9.6,4.4,0,.7-.1,1.4-.7,1.9-1,.9-2.5.5-3-.7-.6-1.5-.9-3.1-1.3-4.7-.9-3.5-1.8-6.9-2.8-10.4-.2-.8-.5-1.6-.7-2.4-.4-1.3-1.1-1.6-2.3-1.2-1.6.5-3.1,1.1-4.7,1.6-1.1.4-2.2.6-3.3.6-.9,0-1.6-.3-1.9-1.2-.3-.9,0-1.6.6-2.3.9-.9,2.1-1.4,3.3-1.8,1.4-.5,2.9-1,4.3-1.5.2,0,.4-.2.7-.3,1.1-.5,1.4-1.3,1.2-2.5-.5-2.4-1.4-4.8-2.1-7.1-.6-2.1-1.3-4.2-2-6.3,0-.1,0-.2-.1-.3-.5-1.5-1.4-1.9-2.9-1.3-2.1.8-4.2,1.7-6.5,2.2-1.1.2-2.1.5-3.2.5-1.1,0-1.9-.5-2.2-1.3-.3-.9,0-1.7.9-2.4.7-.6,1.6-.9,2.4-1.1,2.2-.6,4.3-1.4,6.4-2.1,1.5-.5,1.9-1.6,1.2-3-1.4-2.8-3.6-4.6-6.8-5.2-.1,0-.2,0-.4,0-.4,0-.7,0-1.1,0Z"/>
            <path class="cls-2" d="M183,149.4c0,5.1,1.4,9.3,3.9,13.1.5.8,1,1.6,1.4,2.5.6,1.2.1,2-1.2,2.1-1.9.2-3.4-.5-4.4-2.1-1.5-2.4-2.6-4.9-3.5-7.6-.9-2.7-1.3-5.4-1.2-8.2.1-3.8.7-7.5,2.4-11,1.4-2.8,3.3-5.1,5.6-7.1,1.3-1.2,2.7-2.2,4.2-3,2.4-1.3,4.9-2.1,7.6-2.2,1.2,0,2.4,0,3.5,0,.6,0,1.3,0,1.6-.6.2-.6-.4-.9-.8-1.3-1.9-1.7-4.1-2.8-6.4-3.7-2.7-1-5.4-1-8.1-.6-.5,0-1,.1-1.5.1-1.3,0-2.1-.7-2.3-1.9-.2-.9.5-2,1.5-2.4,1-.4,2-.6,3.1-.8,3.9-.5,7.6,0,11.2,1.5,1.8.8,3.5,1.8,5.1,2.9,0,0,0,0,.1.1,1,.7,1.6.5,1.8-.7.4-1.9.8-3.8,1.4-5.7.8-2.4,1.8-4.7,3.3-6.8,1.2-1.7,2.6-3.3,4.3-4.6.8-.6,1.6-.9,2.6-.8,1.4.2,2.1,1.5,1.7,2.8-.2.7-.6,1.2-1.1,1.7-1.8,1.8-3.5,3.8-4.7,6.1-1.2,2.2-1.9,4.5-2.2,6.9-.3,2.2-.2,4.3.1,6.5,0,.5.2.9.4,1.3.4.8.9,1,1.8.8,1.8-.4,3.5-.9,5.3-1.1,2.2-.3,4.4-.3,6.6.1,2.1.3,4.1,1,6.1,2,2,1,3.7,2.3,5.3,3.9,2.9,2.9,5,6.2,6.3,10.1.5,1.5.7,3.1.8,4.7.1,1.1.3,2.3.3,3.4-.1,3.3-.6,6.4-1.9,9.5-.8,1.9-1.5,3.7-2.6,5.5-.9,1.5-2.2,2.5-4.1,2.3-1.2,0-1.9-1-1.5-2.2.3-1.2,1.1-2.1,1.7-3.2,1.1-2,2.1-4.1,2.7-6.3,1.4-5.2.9-10.2-1.5-15-1.9-3.7-4.6-6.7-8.4-8.5-1.6-.7-3.3-1.1-5.1-1-.3,0-.7,0-.8.4-.1.3.1.6.3.8.5.5,1,.9,1.3,1.5.3.6.5,1.2.5,1.8-.1,1.5-1.5,2.3-3.1,1.7-1.2-.4-2.2-1.1-3.4-1.6-1.9-.8-3.9-1.5-5.9-2.1-.7-.2-1.4,0-2,.3-1.4.9-2.6,2.2-3.7,3.4-1.7,1.8-3,3.9-4.4,6-.4.7-.9,1.4-1.8,1.6-1.5.5-2.8-.5-2.9-2,0-1,.2-1.8.6-2.7,1.2-2.3,2.6-4.6,4.5-6.5.2-.2.3-.4.5-.7.4-.6.2-1.1-.5-1.4-1-.4-2.1-.3-3.1-.4-3.1-.2-6.1.4-8.7,2-1.7,1-3.1,2.3-4.4,3.8-2.1,2.4-3.2,5.3-3.9,8.3-.3,1.5-.5,3-.4,4Z"/>
            <path class="cls-2" d="M234.5,90.5c-.1,1.1-.7,2.3-2,3-.7.4-1.6.3-2.4,0-2.5-.9-5.1-1.8-7.7-2.5-1.9-.5-3.8-1-5.7-1.4-2.6-.5-5.3-.9-8-1.2-2.8-.4-5.6-.6-8.5-.7-2.6,0-5.2,0-7.8,0-2.6.2-5.1.6-7.6,1-2,.3-4,.5-6,1-2.9.7-5.9,1.4-8.8,2.3-3.3,1-6.5,2.3-9.6,3.8-.7.3-1.5.7-2.3,1-2.4.9-3.5,0-4.5-2.2-.6-1.2-.3-2,.8-2.8,1.1-.9,2.5-1.4,3.8-1.9,2.5-1,5-2.2,7.6-3,2.8-1,5.7-1.9,8.6-2.6,2.5-.6,4.9-1.2,7.4-1.5,3.7-.5,7.3-1.1,11.1-1.2,2.3,0,4.6-.3,7-.2,2.8.1,5.6.2,8.4.5,3.7.4,7.3.9,10.9,1.8,2.7.6,5.5,1.3,8.2,2.2,2,.7,4,1.3,5.9,2.1,1,.5,1.3,1,1.3,2.4Z"/>
            <path class="cls-2" d="M215.8,197.3c0,.6-.3,1.1-.6,1.7-1,1.9-2.4,3.4-3.9,4.9-2.2,2.3-4.5,4.5-7,6.5-2,1.6-3.8,3.3-5.7,5-2.8,2.5-5.7,4.9-8.7,7-1.6,1.2-3.1,2.5-4.8,3.6-1.5,1-2.7,1-4.2-.2-1.1-.9-1.1-2.7,0-3.5,2-1.5,4-2.9,5.9-4.4,2.1-1.6,4.1-3.3,6.1-4.9,2.1-1.8,4.2-3.5,6.2-5.4,1.2-1.1,2.4-2.3,3.7-3.4,2.5-2.3,5.1-4.7,7.9-6.7,1-.7,2.1-1.3,3.4-1.5.9-.1,1.5.3,1.5,1.1Z"/>
            <path class="cls-2" d="M246.2,242c.1,1.8-1.3,2.8-3,2-1.6-.7-3-1.6-4.3-2.6-2.2-1.6-4.4-3.2-6.7-4.8-2.3-1.6-4.7-3.3-6.9-5-1.6-1.2-3.3-2.4-4.9-3.6-1.9-1.4-3.8-2.8-5.7-4.2-1.3-.9-2.6-1.8-3.9-2.7-.5-.3-.9-.6-1.2-1.1-.5-.8-.7-1.6-.1-2.4.6-.9,1.5-1.2,2.5-1,1.2.2,2.3.8,3.3,1.4,3.5,2.3,6.8,4.8,10.1,7.3,2.2,1.6,4.5,3.1,6.6,4.8,3.3,2.6,6.9,4.8,10.3,7.4,1.1.8,2.2,1.5,3.2,2.6.6.6.9,1.3.9,2.1Z"/>
            <path class="cls-2" d="M193.3,244.2c-.8,0-1.7-.6-2.5-1.1-1.7-.9-3.1-2.2-4.6-3.2-2.3-1.6-4.5-3.1-6.8-4.8-3.6-2.6-7.3-5.3-10.8-8.1-2.6-2.1-5.3-3.9-8-5.8-.5-.4-1.1-.7-1.4-1.4-.4-.8-.5-1.7,0-2.4.5-.8,1.3-1,2.2-.9,1.6.1,2.8,1,4.1,1.8,2.3,1.5,4.5,3.3,6.7,4.9,1.8,1.3,3.6,2.6,5.3,3.9,1.8,1.3,3.5,2.7,5.3,4,2.7,2,5.5,3.9,8.3,5.9,1.2.9,2.4,1.6,3.4,2.7.8.9,1.2,1.9.8,3.1-.3.8-1.1,1.3-2.1,1.3Z"/>
            <path class="cls-2" d="M233.7,226.6c-1.4,0-3-1.1-2.5-3.1.1-.7.7-1.1,1.2-1.5,2.6-1.9,5.2-3.8,7.7-5.9,2.3-1.8,4.5-3.6,6.7-5.5,1.6-1.4,3.2-2.7,4.7-4.1,1.3-1.1,2.4-2.3,3.7-3.5,1.8-1.8,3.7-3.5,5.8-4.9,1-.6,2-1.1,3.2-1.3,1.7-.2,1.9.7,1.6,1.9-.4,1.2-1.2,2.1-2,3.1-1.4,1.8-3,3.3-4.7,4.8-1.7,1.6-3.6,3.1-5.4,4.7-1.5,1.4-3,2.7-4.5,4.1-2.2,2-4.5,3.8-6.9,5.5-2,1.4-3.9,2.9-5.9,4.4-.8.6-1.6,1.2-2.7,1.1Z"/>
            <path class="cls-2" d="M280.4,215.2c.1.9-.3,1.7-.9,2.4-2.3,2.5-4.6,4.9-7.2,7.2-2.9,2.5-6,4.8-9.1,7.1-3.2,2.5-6.6,4.5-10.2,6.4-.4.2-.8.3-1.2.4-1,.3-2,0-2.5-.9-.5-.8-.4-2.1.3-2.8.8-.9,1.7-1.4,2.7-2,3.3-2.2,6.6-4.3,9.8-6.6,1.7-1.2,3.2-2.5,4.7-3.9,1.5-1.3,3.1-2.6,4.6-4,1-.9,2-1.9,2.9-2.9.9-.9,1.7-1.8,2.8-2.4.5-.3,1-.5,1.6-.4,1.1.2,1.6.9,1.6,2.4Z"/>
            <path class="cls-2" d="M121.2,214.6c0-1.4.5-2,1.6-2.2.8-.1,1.4.3,2,.7.7.5,1.3,1.2,1.9,1.9,1.4,1.6,3.1,3.1,4.6,4.6,2.4,2.3,5,4.5,7.7,6.6,3.6,2.8,7.4,5.4,11.2,8,1.2.8,1.3,1.9,1,3.1-.2,1.1-1.5,1.6-2.6,1.2-1-.3-1.8-.8-2.6-1.3-3.2-2-6.4-4-9.4-6.3-2.1-1.6-4.2-3.4-6.2-5.2-1.7-1.5-3.4-3-5-4.6-1.3-1.4-2.7-2.7-3.6-4.4-.4-.7-.7-1.4-.7-2.2Z"/>
            <path class="cls-2" d="M163.7,196.4c1.2,0,1.6.6,1.3,1.7-.5,1.6-1.6,2.9-2.7,4.2-2.4,2.7-5.1,5.1-7.8,7.4-1.6,1.3-3.1,2.8-4.6,4.2-2.2,2-4.5,3.9-6.9,5.7-1,.8-2,1.6-3.3,1.9-1.1.3-2.3-.2-3-1.2-.5-.9-.4-1.8.4-2.7,1-1.1,2.2-2,3.3-2.9,1.3-1,2.5-2.1,3.8-3.1,1.8-1.3,3.4-2.9,5-4.3,1.7-1.5,3.3-3.1,5-4.6,1.8-1.6,3.6-3.4,5.6-4.8,1.4-1,2.7-1.5,3.8-1.5Z"/>
            <path class="cls-2" d="M170.4,234.9c.1,1-.5,1.6-1.2,2.1-2.9,2.1-5.8,4.2-8.9,5.8-1.3.7-2.6,1.4-4.1,1.7-1.3.2-2.5-.4-2.8-1.4-.3-1,.1-2.1,1.2-2.8.9-.6,1.8-1.1,2.8-1.7,2.6-1.4,5-3,7.4-4.7.9-.6,1.8-1.3,3-1.5,1.4-.2,3,1.3,2.7,2.5Z"/>
            <path class="cls-2" d="M206.6,244.3c-1.4,0-2.1-.5-2.5-1.7-.3-1.1.1-2.1,1.3-2.9,1.2-.8,2.5-1.3,3.7-2,2.1-1.2,4.2-2.5,6.1-3.9.7-.5,1.4-.9,2.1-1.2,1.3-.6,2.6-.2,3.2.9.5.9.4,2.5-.7,3.3-2,1.4-4,2.8-6.1,4.1-1.8,1.1-3.7,2.2-5.7,3.1-.5.2-1.1.4-1.6.3Z"/>
            <path class="cls-2" d="M183.5,194.9c1.4.1,2.6.8,3.7,1.6,1.5,1.1,3,2.3,4.5,3.5.8.6,1.5,1.2,2.2,1.8.6.5,1,1,1.4,1.7.7,1.2.4,2.6-.7,3.4-.6.5-1.3.6-2,.3-1.2-.5-2.1-1.4-3-2.1-1.3-1.1-2.6-2.2-3.9-3.4-1.1-1-2.3-1.9-3.2-3.2-.3-.4-.5-.9-.7-1.4-.3-1,.3-2.4,1.7-2.2Z"/>
            <path class="cls-2" d="M234.2,195.1c1.6,0,2.7.7,3.7,1.4,1.9,1.3,3.6,2.8,5.4,4.3.9.7,1.8,1.3,2.4,2.3.5.8.8,1.6.6,2.6-.4,1.5-1.4,1.9-2.9,1.5-1.1-.3-1.9-1.1-2.7-1.7-2.2-1.8-4.3-3.7-6.3-5.7-.5-.5-.9-1.1-1.3-1.6-.4-.6-.4-1.2-.3-1.9.1-.7.7-1.1,1.4-1.1Z"/>
            <path class="cls-2" d="M134.3,194.9c1.1,0,2.3.5,3.3,1.3,2.1,1.8,4.3,3.6,6.4,5.4.4.3.8.7,1,1.1.7,1,.6,2.2-.2,3.1-1,1.2-2.1,1.4-3.5.4-1-.7-1.9-1.4-2.8-2.2-1.5-1.4-3-2.8-4.5-4.3-.6-.6-1.1-1.3-1.5-2.1,0,0,0-.2-.1-.3-.7-1.6,0-2.6,1.9-2.6Z"/>
            <path class="cls-2" d="M126.7,232.2c-1.4,0-2.3-.9-2.3-2.4,0-1.3.8-2.1,2.1-2.1,1.3,0,2.3,1,2.3,2.4,0,1.4-.9,2.2-2.1,2Z"/>
            <path class="cls-2" d="M277.2,230.3c0,1.3-.9,2.2-2.1,2.2-1.1,0-2.1-.9-2.1-2.1,0-1.2,1.1-2.4,2.1-2.4,1.2,0,2.1.8,2.1,2.3Z"/>
            <path class="cls-2" d="M259.2,218.6c0-1.2.7-2,1.9-1.9,1.1,0,1.9.8,1.9,1.9,0,1.1-.8,1.9-2,1.9-1.1,0-1.8-.7-1.8-1.9Z"/>
          </g>
        </g>
        <g>
          <path class="cls-2" d="M65.4,298.3c0,3.9-1.2,5.3-4.8,5.3s-2.8-.2-4.1-.7h-.4c0-.1,0,6.1,0,6.1h.2c1.2.5,3.2.7,5.2.7,7.4,0,10.8-3.7,10.8-11.6v-27.9h-7v28.1Z"/>
          <path class="cls-2" d="M91.7,279.3c-8,0-13.2,5.9-13.2,15.2s5.4,15.3,14.4,15.3,7.5-1.1,9.6-2.1h.2v-5.5l-.4.2c-1.9.8-4.9,1.9-8.3,1.9-5.4,0-8.4-2.7-8.6-7.8h18.2v-3.1c0-9-4.3-14.1-11.9-14.1ZM97.3,291.6h-11.9c.3-4.4,2.7-6.9,6.5-6.9s5.4,2.5,5.4,6.9Z"/>
          <path class="cls-2" d="M142.8,279.3c-3.3,0-6.5,1.5-9.5,4.4-1.5-2.8-4.6-4.4-8.3-4.4s-6.2,1.4-8.9,3.8v-3.3h-6.3v29.1h6.8v-21.7c1.6-1.5,3.7-2.4,5.8-2.4,3.6,0,5.3,2.1,5.3,6.3v17.8h6.7v-20.3c0-.5,0-.9,0-1.4,1.6-1.5,3.8-2.4,5.9-2.4s5.3,1.1,5.3,6.3v17.8h6.7v-18.7c0-7.3-3.2-10.9-9.5-10.9Z"/>
          <path class="cls-2" d="M169.5,291.9c-2.6-1-4.8-1.9-4.8-4.1s1.5-3.4,4.6-3.4,4.1.5,6.1,1.5l.4.2v-5.4h-.2c-.8-.4-3.5-1.4-7.1-1.4-6.6,0-10.4,3.1-10.4,8.6s4.3,7.6,7.7,9c2.5,1,4.6,1.9,4.6,4s-1.5,3.7-4.8,3.7-4.5-.6-7.2-1.8l-.4-.2v5.5h.2c2.3,1.1,5.2,1.6,8.1,1.6,6.9,0,10.9-3.3,10.9-9s-4.3-7.4-7.7-8.8Z"/>
          <path class="cls-2" d="M194.3,270.2h-11.1v38.7h7v-13.7h4.1c9.3,0,14.9-4.8,14.9-12.9s-5-12.1-14.9-12.1ZM194.3,289.2h-4.1v-12.8h3.9c5.2,0,7.8,2,7.8,6.2s-2.8,6.6-7.6,6.6Z"/>
          <path class="cls-2" d="M236.2,304.6c-1.3,0-1.5-.8-1.5-1.3v-13.3c0-7.5-3.4-10.7-11.5-10.7s-6.1.5-9.4,1.4h-.2v5.3h.4c3.2-.8,5.8-1.1,8-1.1,4.2,0,5.9,1.4,5.9,5.2v1.3h-5.6c-7.6,0-11.7,3.3-11.7,9.6s3.4,8.8,9.4,8.8,6.6-1.1,8.6-3.3c.7,2.2,2.3,3.3,4.9,3.3s2.8-.4,3.9-.7h.2v-4.3h-.3c-.3,0-.8.2-1.1.2ZM227.9,295.6v6.6c-1.6,1.4-3.5,2-5.8,2s-4.6-1.3-4.6-4,2-4.6,6.2-4.6h4.3Z"/>
          <path class="cls-2" d="M259,279.3c-3.6,0-7,1.3-9.7,3.8v-3.3h-6.3v29.1h6.8v-21.7c1.8-1.5,4.1-2.4,6.4-2.4,3.6,0,5.5,1.9,5.5,5.5v18.5h6.8v-18.7c0-7.2-3.3-10.9-9.5-10.9Z"/>
          <path class="cls-2" d="M288.3,304.2c-2.6,0-3.7-1.1-3.7-3.4v-15.8h8.3v-5.1h-8.3v-7.8h-6.8v7.8h-4.8v5.1h4.8v15.9c0,5.8,3,8.9,8.8,8.9s4.9-.4,6.2-.8h.2v-5.5h-.4c-1.6.6-3,.8-4.2.8Z"/>
          <path class="cls-2" d="M304.6,284.6v-4.8h-6.3v29.1h6.8v-19.6c2.7-2.3,6.2-3.6,9.6-3.6h.3v-6.5h-.3c-3.7,0-6.5,1.5-10.1,5.3Z"/>
          <path class="cls-2" d="M338.4,279.8l-7.6,21.7-7.7-21.7h-6.7l10.7,29.7c-1.5,4.3-2.9,5.6-6,5.6s-2.7-.1-4.5-.9l-.4-.2v5.9h.2c1.7.5,3,.6,4.9.6,6.4,0,9.8-2.9,12.7-10.8l10.8-29.9h-6.4Z"/>
        </g>
      </g>
    </g>
  </g>
</svg>