<?xml version="1.0" encoding="UTF-8"?>
<svg xmlns="http://www.w3.org/2000/svg" version="1.1" viewBox="0 0 400 400">
  <defs>
    <style>
      .cls-1 {
        fill: #00442f;
      }

      .cls-2 {
        fill: #fbf8d5;
      }
    </style>
  </defs>
  <!-- Generator: Adobe Illustrator 28.7.3, SVG Export Plug-In . SVG Version: 1.2.0 Build 164)  -->
  <g>
    <g id="Layer_1">
      <g id="Layer_1-2" data-name="Layer_1">
        <g>
          <rect class="cls-1" x="-5.2" y="-5.5" width="412.2" height="412.2"/>
          <g id="z4tGH6">
            <g>
              <path class="cls-2" d="M149.9,276.5c-.8-.1-1.6-.2-2.5-.3-3.4-.4-6.6-1.4-9.7-2.6-2.8-1.1-5.4-2.6-7.8-4.3-2.7-1.8-4.9-4.1-6.9-6.7-2.4-3.2-4.4-6.5-5.9-10.3-.9-2.2-1.5-4.5-1.9-6.9-.3-1.4-.6-2.7-.9-4.1-.2-1.2-.4-2.4-.5-3.7-.3-2.2-.7-4.5-1-6.7-.4-3.1-.9-6.2-1.4-9.3-.2-1.1-.3-2.3-.4-3.4-.2-1.4-1-2.2-2.4-2.7-3.6-1.2-5.8-3.7-6.9-7.3-.9-3.1-.7-6.2,1-9,1.3-2.2,3.2-3.7,5.5-4.6,1.3-.5,1.6-1,1.8-2.4.2-1.8.2-3.7.5-5.5.4-2.8.9-5.5,1.5-8.2,1-4.6,2.6-9,4.4-13.3.6-1.4,1.3-2.7,2.1-4,0,0,0,0,0-.2.9-1.3,1.9-1.4,2.8,0,.3.4.6.8.8,1.3.8,1.2.8,2.5.2,3.9-1,2.6-2.3,5-3.1,7.7-.9,2.7-1.6,5.3-2.2,8.1-.3,1.8-.7,3.6-.9,5.5-.2,1.6-.4,3.1-.4,4.7s.5,1.9,1.7,1.9h23.3c8.8.1,17.6,0,26.4,0s6.4.1,9.6,0c1.8,0,3.6.1,5.4,0,3.3,0,6.6,0,9.8-.1,2.9-.1,5.7,0,8.6,0s4.1.1,6.1,0c3.1-.1,6.2-.1,9.3,0,8.8.2,17.7,0,26.5,0s5.1-.1,7.6,0c4.5.1,9.1.1,13.6,0h20c1.3,0,1.8-.6,1.8-1.9,0-2.5-.3-4.9-.6-7.3-.5-3.6-1.3-7.2-2.4-10.8-.2-.5-.2-1-.2-1.6,0-1.7,2.1-3.2,3.2-3.2s1.2.3,1.6.9c.6,1,1,2.1,1.3,3.2.5,1.7.9,3.4,1.4,5.1.5,1.9.6,3.8.9,5.7.4,2.8.7,5.7.8,8.5,0,1.1.6,1.8,1.6,2.2,1.7.6,3.3,1.6,4.5,3,1.3,1.5,2.2,3.3,2.5,5.3,0,.1,0,.3.1.4v4.2c-.8,4.1-3.3,6.7-7.1,8.1-1.4.5-2.1,1.4-2.4,2.8-.4,2.4-.7,4.9-1.1,7.3-.4,3-.9,5.9-1.4,8.9-.6,3.6-1.2,7.2-2,10.8-.8,3.3-1.8,6.6-3.2,9.7-1.5,3.4-3.6,6.4-6.1,9.3-1.6,1.9-3.6,3.5-5.7,4.9-2.2,1.6-4.6,2.9-7.2,4-2.9,1.3-6,2.2-9.1,2.7-1.2.2-2.3.3-3.5.4h-101.9.4ZM121.4,216.1h-3.4c-1,0-1.5.6-1.5,1.6s.2,2,.4,3c.4,2.8.9,5.5,1.4,8.3.6,3.1.8,6.3,1.4,9.4.4,2.2.7,4.4,1.1,6.6.5,2.4,1.2,4.7,2.1,6.9.8,1.8,1.7,3.6,2.9,5.1,1.5,2,3.3,3.9,5.2,5.6,1.4,1.2,2.7,2.3,4.3,3.3,3.1,1.8,6.3,3.2,9.8,3.9,2.8.6,5.5,1,8.3,1h95.6c2.8,0,5.5-.5,8.2-1.1,3.1-.7,5.9-2.1,8.7-3.6,1.6-.9,3-1.9,4.4-3.1,1.3-1.1,2.6-2.2,3.6-3.5,2-2.6,3.5-5.5,4.8-8.5,1.6-3.8,2.4-7.9,3.2-12,.3-1.9.5-3.9.9-5.8.2-1.2.5-2.5.7-3.7.6-3.7,1.1-7.4,1.7-11.2.2-1.5-.2-2.1-1.7-2.2h-22.8c-4.5,0-8.9.1-13.4,0h-13.4c-9.7.1-19.4,0-29.1.1h-5.9c-2.5-.1-5.1,0-7.6-.1h-45.8c-6.6-.2-13.2,0-19.8,0s-2.9-.2-4.2,0h-.1ZM117.2,199.6c-1.6,0-3.2.1-4.8.1s-1.2.1-1.7.3c-2.2.8-3.5,2.3-3.7,4.7,0,1.1,0,2.3.8,3.3,1.2,1.7,2.9,2.6,5,2.5h30.5c47.1,0,94.1-.1,141.2.1,1.7,0,3.3,0,5-.1,1.9-.1,3.6-.8,4.6-2.5,1.8-2.8.7-6.3-2.3-7.7-1.4-.6-2.9-.8-4.3-.8h-56.4c-14.8,0-29.6.1-44.4,0h-8.7c-10.4,0-20.8.1-31.2,0h-7.6c-7.3,0-14.6.1-21.9,0h-.1Z"/>
              <path class="cls-2" d="M297.6,128.3c0,2.6-.5,5-2.1,7.2-.2.3-.4.5-.6.7-.7.9-.8,1.5-.2,2.5.6.8,1.2,1.7,1.6,2.6,1.5,2.9,2,5.9,1.6,9.1-.3,2.2-1,4.3-2.1,6.2-1.7,2.9-4.2,4.7-7.3,5.9-2.1.8-4.2,1-6.4.9-1.3,0-2.4.3-3.2,1.4-2,2.7-4.9,4.5-7.7,6.3-3,1.9-6.2,3.5-9.3,5.1-1.5.8-2.2,2-2.6,3.6-.6,2.2-1.1,4.5-1.6,6.7-.3,1.1-.7,2.3-1.9,2.8-.8.4-1.7.3-2.5-.2s-1.1-1.3-.8-2.2c.3-1.4.7-2.8,1-4.2.4-2.1.8-4.2,1.3-6.3.4-1.7,0-3.4-.4-5.1-.7-3.1-1.7-6.1-2.7-9.1-.6-1.8-1-3.7-2-5.4-.4-.7-1-1.1-1.7-1.3-1.3-.3-2.6-.8-3.8-1.4s-2.9-1.9-4.1-3.2c-1.1-1.2-2-2.6-2.7-4.1-.9-2.1-1.5-4.2-1.6-6.5-.1-2.8.5-5.3,1.7-7.8.8-1.7,2-3.1,3.3-4.4s1-1.7.7-2.7c-1-3.3-.8-6.6.3-9.9.5-1.5,1.6-2.7,2.7-3.9,2.5-2.5,5.5-3.5,9-3.5s2.3.2,3.4.7c1.2.5,1.9,0,2.5-.9,1.6-2.2,3.6-4.1,6.2-5.1,2.1-.8,4.3-1,6.5-.8,3.3.3,6.1,1.5,8.5,3.9,1.7,1.7,3,3.6,3.7,5.9.3.8.4,1.7.6,2.6.2.9.7,1.4,1.6,1.6,1.4.3,2.8.5,4.1,1,3,1.3,5.1,3.5,6.3,6.5.3.8.6,1.7.7,2.6.1.8,0,1.5.1,2.3h-.1ZM281,158.7c1.5,0,3,0,4.4-.4,2.3-.6,4.1-2,5.6-3.7,1.9-2.2,2.5-4.9,2.2-7.7-.2-2-1.1-3.6-2.5-5-.8-.8-1.8-1.4-2.7-2.1-1.7-1.3-1.7-3,0-4.2.5-.4,1.1-.8,1.6-1.1,1-.8,2-1.5,2.5-2.7,1.3-2.9,1.1-5.7-1-8.2-1.2-1.4-2.6-2.3-4.4-2.6-1.1-.2-2.1,0-3.2,0-1.6.2-2.7-.5-3.2-2-.2-.6-.2-1.2-.1-1.8.3-4.1-2.2-8.3-6.1-9.7-2.3-.9-4.7-1.1-7,0-2.1,1-3.8,2.6-4.6,4.9-.2.6-.5,1.3-.8,1.9-.5,1.1-1.4,1.6-2.6,1.4-.6,0-1-.4-1.5-.7-1.3-.9-2.6-1.7-4.2-1.8-2.2,0-4.3.4-5.8,2-1.7,1.7-2,4-1.9,6.3,0,1.7.7,3.3,1.5,4.9.5,1,.6,2,0,3-.4.6-.9,1-1.5,1.3-1.4.9-2.7,1.9-3.6,3.4-1.6,2.7-2,5.6-1,8.7.8,2.7,2.3,4.9,4.6,6.6,1.6,1.2,3.5,1.9,5.5,2.6,1.4.5,2.6,1.4,3,2.9.8,2.8,2.2,5.3,2.9,8.1.1.4.3,1,.8,1s.6-.6.8-1c.4-1.1.6-2.2.8-3.3.4-2,1-3.9,1.3-5.9.2-1.6.4-3.2-.2-4.8-1.3-3.1-2.5-6.1-4-9-.6-1.2-1.4-2.3-1.8-3.6-.2-.5-.4-1.1-.2-1.6.4-1.6,2.5-2.1,3.6-1,.5.5,1,1,1.3,1.7.6,1.3,1.3,2.4,1.8,3.7.3.7.6,1.4,1.1,2.1.6.8.8.6,1.3,0v-.3c.6-1.8.9-3.7,1.3-5.6.6-3,1-6.1,1.7-9.2.2-1,.3-2.1.8-3.1.4-.9,1.3-1.4,2.1-1.3.9,0,1.6.7,1.9,1.7.2.8.1,1.5,0,2.3-.3,1.9-.6,3.8-.9,5.8-.4,3-1.1,5.8-1.6,8.8-.3,1.8-.8,3.5-1.2,5.2,0,.4,0,.8.3,1.1.4.3.7,0,1-.2,1.7-1.1,3.1-2.4,4.7-3.6.9-.7,1.8-1.4,2.9-1.8.9-.3,1.9,0,2.4.5.6.7.6,1.6,0,2.4-.3.6-.8,1.1-1.3,1.5-1.9,1.7-3.8,3.3-5.8,4.8-1.7,1.3-3.3,2.8-5,4-1.1.7-1.8,1.8-2.1,3-.4,1.2-.6,2.4-.9,3.6-.6,2.7-1.4,5.3-1.9,8-.2.9.4,1.4,1.3,1.1s1.8-.7,2.6-1.2c3.2-1.7,6.2-3.8,8.6-6.4.7-.7,1.2-1.5,1.8-2.2.8-.8,1.7-1.3,2.9-1.3h1.7Z"/>
              <path class="cls-2" d="M150.8,138.4c-2,0-3.9.5-5.8,1.2-2.3,1-4.7,1.6-7.1,2.1-2.5.5-4.5,1.8-5.8,4-.7,1.1-.9,2.3-1,3.6-.2,2.7.3,5.2,1.2,7.7.9,2.6,2,5.1,3.2,7.5.7,1.5,1.5,1.7,3,1,2.3-1.1,4.6-2.2,7-3.1.6-.2,1.2-.5,1.9-.5,1.4,0,2.3,1.5,1.7,2.8-.4.8-1,1.3-1.7,1.7-1.9,1.1-4,1.9-6,2.7-.6.2-1.1.5-1.6.8-.7.4-.9,1-.7,1.8.5,1.5,1.3,2.9,2.1,4.3,1.7,3.3,3.1,6.7,4.7,10,.5,1.2,1,2.4,1.2,3.7.2,1.2-.5,2-1.7,2s-1.7-.3-2.3-1.1c-.8-1.2-1.4-2.5-2-3.8-2.4-4.9-4.8-9.8-7.2-14.7-1.2-2.5-2.5-5-3.8-7.5-1.4-2.8-2.7-5.7-3.5-8.8-.8-3.4-1-6.8.3-10.2.9-2.3,2.1-4.3,4-5.8.9-.7.9-1.3.2-2.2-1-1.2-2.1-2.2-3.2-3.2-1-.9-2-1.8-3-2.6-1.1-.9-2.2-1.7-3.3-2.5-2.6-1.8-5.5-3.3-8.3-4.7-.9-.5-1.9-.9-2.9-1.3-.9-.4-1.7-.9-2-2-.4-1.6.9-3.1,2.6-2.8s3.3,1,4.8,1.7c2.8,1.3,5.5,2.9,8,4.7,2.8,1.9,5.5,3.8,7.9,6.2s.5.4.7.6c.2,0,.4.3.6.2.3-.2.2-.4.1-.7,0-.3-.2-.6-.3-.9-1.4-3.6-2.8-7.2-4.5-10.7-2-4.2-4.3-8.1-6.4-12.2-.5-.9-.9-1.9-.6-2.9.3-1.5,1.9-2.2,3.3-1.4.8.5,1.3,1.2,1.7,2,1.8,3,3.6,6,5.1,9.2,1.8,3.7,3.4,7.4,5,11.2.4,1,.8,1.9,1.2,2.9.1.3.3.7.7.7s.4-.5.5-.9c.3-1.5.3-3,.5-4.5.3-2.1.6-4.2.9-6.3.3-2.4,1-4.6,1.7-6.9.2-.7.6-1.2,1-1.7.6-.7,1.4-.9,2.2-.5.8.3,1.2,1,1.3,1.9.1,1.1-.1,2.1-.5,3.1-.7,2.1-1.1,4.2-1.4,6.3-.3,2.6-.7,5.2-.9,7.8-.2,1.8-.2,3.5-.3,5.3v.7c.1.8.6,1.2,1.4,1,.9-.2,1.8-.5,2.8-.6,2.7-.5,5.3-.5,7.9.4,1.6.6,2.9,1.7,4.1,2.9,2.2,2.3,3.7,5.1,5,8,1.9,4.2,3.3,8.6,4.5,13.1.8,3,1.6,5.9,2.3,8.9.8,3.1,1.7,6.2,2.4,9.4.7,2.8,1.3,5.7,2,8.5.3,1.4.6,2.8.6,4.2s-.1,1.3-.7,1.8c-.9.8-2.4.5-2.9-.7-.6-1.5-.9-3-1.3-4.5-.8-3.3-1.7-6.7-2.7-10-.2-.8-.4-1.6-.7-2.3-.4-1.2-1.1-1.6-2.3-1.2-1.5.5-3,1-4.5,1.6-1,.4-2.1.6-3.2.6s-1.5-.3-1.9-1.1c-.3-.9,0-1.6.5-2.2.9-.9,2-1.3,3.2-1.7,1.4-.5,2.8-1,4.1-1.5.2,0,.4-.2.6-.3,1.1-.5,1.4-1.3,1.2-2.4-.5-2.4-1.3-4.6-2-6.9-.6-2.1-1.3-4.1-1.9-6.1,0,0,0-.2-.1-.3-.5-1.4-1.4-1.8-2.8-1.3-2,.8-4.1,1.7-6.2,2.1-1,.2-2,.5-3.1.5s-1.9-.5-2.1-1.3c-.3-.9,0-1.6.9-2.3.7-.6,1.5-.9,2.4-1.1,2.1-.6,4.2-1.3,6.2-2.1,1.4-.5,1.8-1.5,1.1-2.9-1.4-2.7-3.5-4.5-6.5-5h-1.3l.5-.2Z"/>
              <path class="cls-2" d="M184.1,174.7c0,5,1.4,9,3.8,12.7.5.8,1,1.6,1.4,2.4.6,1.2.1,1.9-1.2,2.1-1.9.2-3.3-.4-4.2-2.1-1.4-2.3-2.6-4.8-3.4-7.3-.8-2.6-1.3-5.2-1.2-7.9.1-3.7.7-7.3,2.3-10.6,1.3-2.7,3.2-4.9,5.4-6.9,1.3-1.1,2.6-2.1,4.1-2.9,2.3-1.3,4.7-2,7.4-2.1h3.4c.6,0,1.3,0,1.5-.6s-.4-.9-.8-1.2c-1.8-1.6-3.9-2.7-6.2-3.5-2.6-1-5.2-.9-7.8-.5-.5,0-1,0-1.4,0-1.2,0-2-.6-2.3-1.8-.2-.9.5-2,1.5-2.3,1-.4,2-.6,3-.8,3.7-.5,7.3,0,10.8,1.5,1.7.7,3.4,1.7,4.9,2.8h.1c1,.7,1.5.5,1.8-.6.4-1.9.8-3.7,1.4-5.5.7-2.3,1.8-4.5,3.2-6.5,1.2-1.7,2.5-3.2,4.1-4.4.7-.6,1.6-.9,2.5-.8,1.3.2,2.1,1.5,1.6,2.7-.2.6-.6,1.1-1.1,1.6-1.8,1.8-3.4,3.7-4.6,5.9-1.1,2.1-1.8,4.3-2.1,6.6-.2,2.1-.2,4.2,0,6.3,0,.4.2.9.4,1.3.4.7.9,1,1.7.8,1.7-.4,3.4-.9,5.1-1.1,2.1-.3,4.3-.2,6.4,0,2.1.3,4,1,5.9,1.9,1.9,1,3.6,2.2,5.1,3.7,2.8,2.8,4.8,6,6.1,9.7.5,1.5.6,3,.8,4.5.1,1.1.3,2.2.2,3.3-.1,3.1-.5,6.2-1.8,9.1-.8,1.8-1.5,3.6-2.5,5.3-.9,1.5-2.1,2.4-3.9,2.2-1.2,0-1.8-.9-1.5-2.1.3-1.1,1-2.1,1.6-3.1,1.1-1.9,2-3.9,2.6-6.1,1.3-5,.9-9.8-1.5-14.5-1.8-3.6-4.4-6.4-8.1-8.2-1.5-.7-3.2-1-4.9-1s-.7,0-.8.4c-.1.3.1.6.3.8.4.5,1,.9,1.3,1.5.3.5.5,1.1.5,1.8-.1,1.5-1.4,2.2-3,1.7-1.1-.4-2.2-1-3.3-1.5-1.9-.8-3.8-1.5-5.7-2-.7-.2-1.3,0-1.9.3-1.4.9-2.5,2.1-3.6,3.3-1.6,1.8-2.9,3.8-4.3,5.8-.4.7-.9,1.3-1.7,1.6-1.4.4-2.7-.5-2.8-2,0-.9.2-1.8.6-2.6,1.2-2.3,2.5-4.5,4.3-6.3s.3-.4.5-.7c.4-.6.2-1.1-.5-1.3-1-.4-2-.3-3-.4-3-.2-5.9.4-8.4,2-1.6,1-3,2.2-4.3,3.7-2,2.3-3.1,5.1-3.8,8-.3,1.4-.5,2.9-.4,3.9h.4Z"/>
              <path class="cls-2" d="M233.7,117.8c-.1,1-.7,2.2-1.9,2.9-.7.4-1.5.3-2.3,0-2.5-.9-4.9-1.7-7.4-2.4-1.8-.5-3.7-1-5.5-1.3-2.6-.5-5.1-.8-7.7-1.2-2.7-.4-5.4-.5-8.2-.6h-7.5c-2.5.2-4.9.5-7.3.9-1.9.3-3.9.5-5.8.9-2.8.7-5.7,1.4-8.5,2.3-3.2,1-6.2,2.3-9.3,3.6-.7.3-1.4.7-2.2.9-2.3.9-3.4,0-4.4-2.1-.5-1.2-.3-1.9.8-2.7s2.4-1.4,3.6-1.9c2.4-1,4.8-2.1,7.3-2.9,2.7-.9,5.5-1.8,8.3-2.5,2.4-.5,4.7-1.1,7.1-1.4,3.6-.5,7.1-1.1,10.7-1.2,2.2,0,4.5-.3,6.7-.2,2.7,0,5.4.2,8.1.5,3.5.4,7.1.9,10.6,1.7,2.6.6,5.3,1.2,7.9,2.1,1.9.7,3.9,1.2,5.7,2.1.9.4,1.3,1,1.3,2.3v.2Z"/>
              <path class="cls-2" d="M215.7,220.9c0,.6-.3,1.1-.6,1.6-1,1.8-2.4,3.3-3.8,4.8-2.1,2.2-4.4,4.3-6.7,6.3-1.9,1.5-3.7,3.2-5.5,4.8-2.7,2.4-5.5,4.7-8.4,6.8-1.6,1.1-3,2.4-4.6,3.5-1.5,1-2.6,1-4-.2-1.1-.9-1.1-2.6,0-3.4,1.9-1.4,3.9-2.8,5.7-4.2,2-1.5,4-3.1,5.9-4.8,2-1.7,4-3.4,6-5.2,1.2-1.1,2.4-2.2,3.5-3.3,2.4-2.3,4.9-4.5,7.6-6.5,1-.7,2.1-1.3,3.3-1.4.9-.1,1.5.3,1.5,1.1h.1Z"/>
              <path class="cls-2" d="M245,264.1c.1,1.7-1.3,2.7-2.9,2-1.5-.7-2.9-1.6-4.2-2.5-2.1-1.6-4.3-3.1-6.4-4.6-2.3-1.6-4.5-3.2-6.7-4.9-1.6-1.2-3.2-2.3-4.8-3.5-1.8-1.4-3.6-2.7-5.5-4.1-1.2-.9-2.5-1.7-3.8-2.6-.4-.3-.9-.6-1.2-1.1-.5-.8-.7-1.6-.1-2.3.6-.8,1.4-1.2,2.4-1,1.2.2,2.2.8,3.2,1.4,3.3,2.2,6.6,4.6,9.8,7,2.1,1.6,4.3,3,6.4,4.6,3.2,2.5,6.7,4.7,9.9,7.1,1,.8,2.2,1.5,3,2.5.5.6.9,1.2.8,2h.1Z"/>
              <path class="cls-2" d="M193.9,266.2c-.8,0-1.6-.6-2.4-1-1.6-.9-3-2.1-4.4-3.1-2.2-1.5-4.4-3-6.5-4.6-3.5-2.6-7-5.1-10.4-7.8-2.5-2-5.1-3.8-7.7-5.6-.5-.4-1-.7-1.4-1.3-.4-.8-.5-1.6,0-2.4.5-.7,1.2-.9,2.1-.9,1.5.1,2.7,1,4,1.8,2.2,1.5,4.3,3.2,6.5,4.7,1.7,1.3,3.4,2.5,5.1,3.7,1.7,1.3,3.4,2.6,5.2,3.9,2.6,1.9,5.3,3.8,8,5.7,1.1.8,2.4,1.6,3.3,2.6.8.8,1.2,1.8.7,3-.3.8-1,1.3-2,1.2h-.1Z"/>
              <path class="cls-2" d="M233,249.2c-1.4,0-2.9-1-2.4-3,.1-.7.6-1.1,1.1-1.4,2.5-1.9,5-3.7,7.4-5.7,2.2-1.7,4.4-3.5,6.5-5.3,1.5-1.3,3.1-2.6,4.6-3.9,1.2-1.1,2.4-2.2,3.5-3.4,1.8-1.7,3.6-3.4,5.6-4.7.9-.6,2-1.1,3.1-1.2,1.7-.2,1.9.7,1.5,1.8-.4,1.2-1.2,2.1-1.9,3-1.3,1.7-2.9,3.2-4.5,4.7-1.7,1.6-3.5,3-5.2,4.5-1.5,1.3-2.9,2.6-4.4,4-2.1,1.9-4.3,3.6-6.6,5.3-1.9,1.4-3.8,2.8-5.7,4.2-.8.6-1.6,1.2-2.6,1.1h0Z"/>
              <path class="cls-2" d="M278,238.2c.1.9-.3,1.6-.9,2.3-2.2,2.4-4.5,4.8-6.9,6.9-2.8,2.4-5.8,4.6-8.8,6.9-3.1,2.4-6.4,4.4-9.8,6.2-.4.2-.7.3-1.1.4-1,.3-1.9,0-2.4-.9-.5-.8-.4-2,.2-2.7.7-.8,1.7-1.3,2.6-1.9,3.2-2.1,6.4-4.2,9.5-6.4,1.6-1.1,3.1-2.4,4.6-3.7s3-2.5,4.5-3.8c1-.9,1.9-1.9,2.8-2.8.8-.8,1.6-1.7,2.7-2.3.5-.3,1-.5,1.5-.4,1.1.2,1.6.9,1.6,2.3h-.1Z"/>
              <path class="cls-2" d="M124.3,237.6c0-1.3.4-1.9,1.6-2.1.7,0,1.4.3,2,.7.7.5,1.3,1.2,1.8,1.9,1.4,1.6,2.9,3,4.5,4.5,2.3,2.3,4.8,4.3,7.4,6.3,3.5,2.7,7.2,5.2,10.8,7.7,1.2.8,1.3,1.8,1,3-.2,1-1.4,1.5-2.5,1.2-.9-.3-1.7-.8-2.5-1.3-3.1-1.9-6.2-3.8-9-6.1-2.1-1.6-4.1-3.3-6-5-1.6-1.5-3.3-2.9-4.8-4.5-1.3-1.3-2.6-2.6-3.5-4.2-.4-.7-.7-1.4-.6-2.1h-.2Z"/>
              <path class="cls-2" d="M165.4,220c1.1,0,1.6.6,1.2,1.7-.5,1.6-1.5,2.8-2.6,4-2.3,2.6-4.9,4.9-7.5,7.2-1.5,1.3-3,2.7-4.5,4-2.1,2-4.4,3.7-6.6,5.5-1,.8-2,1.5-3.2,1.9-1,.3-2.2-.2-2.9-1.2-.5-.8-.4-1.7.4-2.6.9-1.1,2.1-1.9,3.2-2.8,1.2-1,2.4-2.1,3.7-3,1.7-1.3,3.3-2.8,4.9-4.2,1.6-1.4,3.2-3,4.8-4.4,1.8-1.6,3.4-3.3,5.4-4.6,1.4-1,2.6-1.4,3.7-1.5h0Z"/>
              <path class="cls-2" d="M171.8,257.2c.1.9-.5,1.5-1.2,2-2.8,2-5.6,4-8.6,5.6-1.3.6-2.5,1.4-3.9,1.6-1.3.2-2.4-.4-2.7-1.4s.1-2,1.2-2.7c.9-.6,1.8-1.1,2.7-1.6,2.5-1.3,4.8-2.9,7.1-4.5.9-.6,1.7-1.3,2.9-1.4,1.4-.2,2.9,1.2,2.7,2.5h-.2Z"/>
              <path class="cls-2" d="M206.8,266.4c-1.3,0-2-.5-2.4-1.6-.3-1.1.1-2.1,1.2-2.8,1.1-.8,2.4-1.3,3.6-1.9,2-1.2,4-2.4,5.9-3.7.6-.5,1.3-.9,2-1.2,1.3-.6,2.5-.2,3.1.9.5.9.4,2.5-.7,3.2-1.9,1.3-3.8,2.7-5.9,3.9-1.8,1.1-3.6,2.1-5.5,3-.5.2-1.1.3-1.5.3h.2Z"/>
              <path class="cls-2" d="M184.4,218.6c1.4.1,2.5.8,3.6,1.5,1.5,1.1,2.9,2.3,4.3,3.4.7.6,1.4,1.2,2.1,1.8.5.5,1,1,1.3,1.6.6,1.1.4,2.5-.6,3.3-.6.5-1.3.5-2,.3-1.1-.5-2-1.3-2.9-2.1-1.3-1.1-2.5-2.1-3.8-3.3-1.1-1-2.2-1.9-3.1-3.1-.3-.4-.5-.9-.6-1.4-.3-.9.3-2.3,1.7-2.1h0Z"/>
              <path class="cls-2" d="M233.4,218.9c1.6,0,2.6.6,3.6,1.3,1.8,1.3,3.5,2.7,5.2,4.1.8.7,1.7,1.3,2.3,2.2.5.8.8,1.6.6,2.5-.4,1.5-1.3,1.8-2.8,1.5-1-.2-1.8-1-2.6-1.7-2.1-1.8-4.2-3.6-6.1-5.5-.5-.5-.9-1-1.2-1.6-.4-.6-.4-1.2-.3-1.8.1-.7.7-1.1,1.3-1.1h0Z"/>
              <path class="cls-2" d="M137,218.7c1.1,0,2.2.5,3.2,1.3,2.1,1.7,4.1,3.5,6.2,5.2.4.3.7.7,1,1.1.6,1,.6,2.1-.2,3-1,1.2-2,1.3-3.4.4-1-.6-1.9-1.4-2.7-2.2-1.5-1.3-2.9-2.7-4.3-4.1s-1.1-1.3-1.4-2c0,0,0-.2-.1-.3-.6-1.6,0-2.5,1.8-2.5h-.1Z"/>
              <path class="cls-2" d="M129.6,254.7c-1.4,0-2.3-.9-2.2-2.3,0-1.3.8-2,2-2s2.2,1,2.2,2.4-.8,2.1-2,2h0Z"/>
              <path class="cls-2" d="M274.9,252.8c0,1.2-.9,2.1-2.1,2.1s-2-.9-2-2,1-2.3,2-2.3,2,.7,2,2.2h.1Z"/>
              <path class="cls-2" d="M257.6,241.5c0-1.1.7-1.9,1.8-1.9s1.8.8,1.8,1.8-.8,1.8-1.9,1.8-1.7-.7-1.7-1.8h0Z"/>
            </g>
          </g>
        </g>
      </g>
    </g>
  </g>
</svg>