<?xml version="1.0" encoding="UTF-8"?>
<svg xmlns="http://www.w3.org/2000/svg" version="1.1" viewBox="0 0 400 400">
  <defs>
    <style>
      .cls-1 {
        fill: #00442f;
      }

      .cls-2 {
        fill: #fbf8d5;
      }
    </style>
  </defs>
  <!-- Generator: Adobe Illustrator 28.7.3, SVG Export Plug-In . SVG Version: 1.2.0 Build 164)  -->
  <g>
    <g id="Layer_1">
      <rect class="cls-1" x="-5.2" y="-5.5" width="412.2" height="412.2"/>
      <g id="z4tGH6">
        <g>
          <path class="cls-2" d="M132.2,271c-1.1-.1-2.2-.3-3.3-.4-4.5-.5-8.8-1.8-13-3.5-3.7-1.5-7.2-3.4-10.5-5.7-3.6-2.4-6.6-5.5-9.2-8.9-3.2-4.2-5.9-8.8-7.9-13.7-1.2-3-2-6.1-2.5-9.2-.3-1.8-.9-3.7-1.2-5.5-.3-1.6-.5-3.3-.7-4.9-.3-3-.9-6-1.3-9-.6-4.1-1.2-8.3-1.9-12.4-.3-1.5-.4-3.1-.6-4.6-.2-1.9-1.4-3-3.2-3.6-4.8-1.6-7.8-4.9-9.3-9.7-1.3-4.2-.9-8.3,1.4-12,1.7-2.9,4.2-5,7.4-6.2,1.7-.6,2.2-1.4,2.4-3.2.3-2.5.3-4.9.7-7.4.5-3.7,1.2-7.3,2-11,1.4-6.1,3.5-12,6-17.7.8-1.9,1.7-3.6,2.8-5.4,0,0,.1-.2.2-.3,1.2-1.8,2.5-1.8,3.8,0,.4.5.8,1.1,1.1,1.7,1,1.7,1,3.3.3,5.2-1.4,3.4-3,6.7-4.2,10.3-1.2,3.6-2.2,7.2-2.9,10.8-.5,2.4-1,4.9-1.3,7.3-.2,2.1-.6,4.1-.5,6.2,0,1.7.6,2.5,2.3,2.6,2.6.1,5.1.1,7.7,0,.3,0,.6,0,.9,0,7.6,0,15.2-.1,22.7,0,11.8.2,23.6.1,35.4,0,4.3,0,8.5.1,12.8,0,2.4,0,4.9.2,7.3.1,4.4,0,8.8,0,13.2-.2,3.8-.1,7.7-.1,11.5,0,2.7,0,5.5.2,8.2,0,4.1-.2,8.3-.1,12.4,0,11.8.2,23.7,0,35.5,0,3.4,0,6.8-.2,10.2,0,6.1.2,12.2.1,18.2,0,3.6,0,7.2-.1,10.8,0,2.7,0,5.4.1,8.1,0,2.6,0,5.2,0,7.8-.1,1.7,0,2.4-.8,2.4-2.5,0-3.3-.4-6.5-.9-9.8-.7-4.9-1.7-9.7-3.2-14.4-.2-.7-.3-1.4-.3-2.1,0-2.2,2.8-4.2,4.3-4.3,1,0,1.7.4,2.1,1.2.8,1.3,1.3,2.8,1.7,4.2.7,2.3,1.2,4.5,1.9,6.8.7,2.5.9,5.1,1.3,7.6.6,3.8.9,7.6,1.1,11.4,0,1.5.8,2.4,2.2,2.9,2.3.9,4.4,2.1,6,4,1.7,2,2.9,4.4,3.4,7,0,.2,0,.3.1.5v5.3c0,.1-.1.3-.1.4-1.1,5.4-4.5,8.9-9.5,10.8-1.9.7-2.9,1.9-3.2,3.8-.5,3.3-.9,6.5-1.4,9.8-.6,4-1.2,7.9-1.8,11.9-.8,4.8-1.6,9.7-2.7,14.5-1,4.5-2.3,8.8-4.2,13-2.1,4.6-4.9,8.6-8.1,12.4-2.2,2.6-4.9,4.6-7.6,6.6-3,2.1-6.2,3.9-9.6,5.3-3.9,1.7-8,2.9-12.2,3.6-1.6.2-3.1.4-4.7.6h-136.4ZM94.1,190.2c-1.5,0-3,0-4.5.1-1.4.1-2,.8-1.9,2.2,0,1.4.3,2.7.5,4.1.6,3.7,1.2,7.4,1.9,11.1.8,4.2,1.1,8.4,1.9,12.6.5,2.9.9,5.9,1.5,8.8.7,3.2,1.6,6.3,2.8,9.3,1,2.4,2.3,4.8,3.8,6.9,2,2.7,4.4,5.2,7,7.5,1.8,1.6,3.7,3.1,5.7,4.4,4.1,2.5,8.5,4.3,13.2,5.3,3.7.8,7.4,1.3,11.1,1.3,15.4,0,30.8,0,46.2,0,27.3,0,54.5,0,81.8,0,3.7,0,7.4-.7,11-1.5,4.1-1,8-2.8,11.6-4.9,2.1-1.2,4.1-2.5,5.9-4.1,1.7-1.5,3.4-2.9,4.8-4.7,2.7-3.5,4.7-7.3,6.5-11.4,2.2-5.2,3.2-10.6,4.2-16.1.5-2.6.7-5.2,1.1-7.8.3-1.7.7-3.3.9-4.9.8-5,1.5-10,2.2-14.9.3-2-.3-2.8-2.3-2.9-.1,0-.2,0-.3,0-4,0-8,0-11.9-.1-6.1,0-12.2,0-18.3,0-6,.1-11.9.2-17.9,0-3.1-.1-6.3,0-9.4-.1-2.9,0-5.7,0-8.6,0-13,.2-26-.1-39,.2-2.6,0-5.2,0-7.8,0-3.4-.2-6.8-.1-10.2-.2-.9,0-1.9.1-2.8.1-4.2,0-8.4,0-12.6,0-6.8,0-13.6,0-20.4,0-8.5.1-17.1.1-25.6,0-8.8-.2-17.6,0-26.5.1-1.9,0-3.8-.3-5.7-.1ZM88.4,168c-2.1-.1-4.3.1-6.4.2-.8,0-1.6.2-2.3.4-2.9,1.1-4.7,3.1-4.9,6.3,0,1.5.1,3.1,1,4.4,1.6,2.3,3.8,3.4,6.7,3.4,13.6,0,27.2,0,40.8,0,63,0,126-.2,189,.1,2.2,0,4.4,0,6.7-.2,2.6-.2,4.8-1.1,6.2-3.4,2.4-3.8,1-8.4-3-10.2-1.9-.9-3.8-1.1-5.8-1.1-5.7,0-11.4,0-17,.1-5.7,0-11.5,0-17.2,0-3.5-.1-7,0-10.5,0-6.7,0-13.5,0-20.2,0-3.5,0-6.9,0-10.4,0-19.8,0-39.6.2-59.4,0-3.9,0-7.8,0-11.7,0-13.9,0-27.9.2-41.8,0-3.4,0-6.8,0-10.2,0-9.7,0-19.5.2-29.2,0Z"/>
          <path class="cls-2" d="M329.9,72.6c.1,3.5-.7,6.8-2.8,9.6-.2.3-.5.6-.8,1-1,1.1-1.1,2.1-.2,3.3.8,1.1,1.6,2.3,2.2,3.5,2,3.8,2.7,7.8,2.1,12.1-.4,3-1.3,5.7-2.9,8.3-2.3,3.8-5.7,6.3-9.8,7.9-2.8,1-5.7,1.4-8.6,1.3-1.8,0-3.2.4-4.3,1.9-2.7,3.7-6.5,6-10.3,8.5-4,2.6-8.2,4.6-12.4,6.8-2,1-2.9,2.7-3.5,4.8-.8,3-1.4,6-2.1,9-.3,1.5-.9,3-2.5,3.7-1.1.5-2.3.4-3.3-.3-1-.7-1.4-1.8-1.1-3,.4-1.9.9-3.8,1.3-5.6.6-2.8,1.1-5.6,1.7-8.4.5-2.3,0-4.6-.5-6.8-1-4.1-2.3-8.2-3.7-12.2-.8-2.4-1.4-4.9-2.7-7.2-.5-.9-1.3-1.5-2.3-1.7-1.8-.4-3.5-1.1-5.1-1.8-2.1-1-3.9-2.5-5.5-4.3-1.5-1.7-2.7-3.5-3.6-5.5-1.2-2.8-2-5.7-2.1-8.8-.2-3.7.7-7.1,2.2-10.4,1.1-2.3,2.6-4.1,4.4-5.8,1-1,1.3-2.2.9-3.6-1.3-4.5-1.1-8.9.4-13.3.7-2.1,2.1-3.7,3.6-5.2,3.3-3.4,7.4-4.7,12-4.7,1.6,0,3.1.3,4.5.9,1.6.7,2.6-.1,3.4-1.2,2.2-3,4.8-5.4,8.3-6.8,2.8-1.1,5.7-1.4,8.7-1.1,4.4.4,8.2,2,11.4,5.2,2.3,2.3,4.1,4.8,5,7.9.4,1.1.6,2.3.8,3.5.3,1.1,1,1.9,2.1,2.1,1.9.4,3.7.6,5.5,1.4,4,1.8,6.8,4.7,8.4,8.8.5,1.1.8,2.3.9,3.5.2,1,.1,2.1.2,3.1ZM307.7,113.3c2.1.1,4,0,5.9-.5,3-.9,5.5-2.6,7.5-5,2.5-3,3.4-6.5,2.9-10.3-.3-2.6-1.4-4.9-3.4-6.7-1.1-1.1-2.4-1.9-3.6-2.8-2.3-1.7-2.3-4,0-5.6.7-.5,1.4-1,2.1-1.5,1.3-1,2.7-2.1,3.4-3.6,1.7-3.9,1.5-7.7-1.4-11-1.6-1.8-3.5-3.1-5.9-3.5-1.4-.3-2.8-.1-4.2,0-2.2.3-3.7-.6-4.3-2.7-.2-.8-.2-1.6-.1-2.4.4-5.5-2.9-11.1-8.2-13-3.1-1.2-6.2-1.4-9.3,0-2.9,1.4-5,3.5-6.2,6.5-.3.8-.6,1.7-1,2.5-.7,1.5-1.9,2.1-3.4,1.9-.8,0-1.4-.6-2-1-1.7-1.2-3.5-2.2-5.6-2.4-3-.2-5.7.5-7.8,2.7-2.3,2.3-2.7,5.3-2.6,8.4,0,2.3,1,4.5,2,6.5.7,1.3.9,2.7,0,4-.5.8-1.3,1.3-2,1.8-1.9,1.2-3.6,2.6-4.8,4.5-2.2,3.7-2.7,7.5-1.4,11.6,1.1,3.6,3.1,6.6,6.1,8.8,2.2,1.7,4.7,2.6,7.3,3.5,1.9.7,3.5,1.8,4,3.9,1.1,3.7,2.9,7.1,3.9,10.9.2.6.4,1.3,1.1,1.3.6,0,.8-.7,1.1-1.3.5-1.4.8-2.9,1.1-4.4.6-2.6,1.4-5.2,1.8-7.9.3-2.2.5-4.3-.3-6.4-1.7-4.1-3.3-8.2-5.4-12.1-.9-1.6-1.8-3.1-2.5-4.8-.3-.7-.5-1.4-.3-2.2.6-2.1,3.3-2.8,4.9-1.3.7.7,1.3,1.4,1.7,2.3.8,1.7,1.8,3.3,2.5,5,.4,1,.9,1.9,1.5,2.8.8,1.1,1.1.8,1.7-.2,0-.1,0-.2.1-.4.8-2.5,1.2-5,1.7-7.5.8-4.1,1.4-8.2,2.3-12.3.3-1.4.4-2.8,1-4.1.6-1.2,1.7-1.9,2.8-1.8,1.2.1,2.2,1,2.6,2.3.3,1,.2,2.1,0,3.1-.4,2.6-.8,5.1-1.2,7.7-.5,4-1.5,7.8-2.2,11.7-.4,2.4-1.1,4.7-1.6,7-.1.5-.1,1.1.3,1.4.5.4.9,0,1.4-.2,2.2-1.4,4.2-3.2,6.3-4.8,1.2-.9,2.4-1.9,3.9-2.4,1.2-.5,2.6-.2,3.3.7.7.9.8,2.1,0,3.2-.5.8-1,1.4-1.7,2-2.5,2.2-5.1,4.5-7.8,6.5-2.3,1.7-4.4,3.7-6.7,5.3-1.4,1-2.4,2.3-2.9,4-.5,1.6-.8,3.3-1.2,4.9-.9,3.6-1.8,7.1-2.5,10.7-.2,1.2.5,1.9,1.7,1.5,1.3-.4,2.4-1,3.5-1.6,4.3-2.3,8.2-5,11.6-8.6.9-.9,1.6-2,2.5-3,1-1.1,2.3-1.8,3.8-1.7.8,0,1.6,0,2.2,0Z"/>
          <path class="cls-2" d="M133.4,86.2c-2.7,0-5.3.6-7.8,1.6-3.1,1.3-6.3,2.1-9.5,2.8-3.3.7-6,2.4-7.7,5.4-.9,1.5-1.2,3.1-1.3,4.8-.3,3.6.4,7,1.6,10.3,1.2,3.5,2.7,6.8,4.3,10.1,1,2,2,2.2,4,1.3,3.1-1.4,6.2-2.9,9.4-4.1.8-.3,1.6-.7,2.5-.6,1.8,0,3,2,2.3,3.7-.5,1-1.3,1.7-2.3,2.2-2.6,1.4-5.3,2.5-8,3.6-.7.3-1.5.6-2.2,1-1,.5-1.3,1.3-.9,2.3.7,2,1.8,3.8,2.8,5.7,2.2,4.4,4.2,8.9,6.2,13.4.7,1.6,1.3,3.2,1.6,4.9.2,1.6-.7,2.6-2.3,2.7-1.4,0-2.3-.4-3.1-1.5-1.1-1.6-1.9-3.3-2.7-5-3.2-6.6-6.4-13.2-9.6-19.7-1.6-3.4-3.4-6.7-5-10-1.9-3.8-3.6-7.7-4.6-11.8-1.1-4.6-1.4-9.1.4-13.6,1.2-3,2.8-5.7,5.4-7.8,1.2-1,1.2-1.7.2-2.9-1.3-1.6-2.8-2.9-4.3-4.3-1.3-1.2-2.6-2.4-4-3.5-1.4-1.2-2.9-2.3-4.5-3.3-3.5-2.4-7.3-4.4-11.1-6.3-1.3-.6-2.6-1.1-3.9-1.7-1.3-.5-2.3-1.3-2.7-2.7-.5-2.2,1.3-4.2,3.5-3.8,2.3.4,4.4,1.3,6.5,2.3,3.8,1.8,7.3,3.9,10.8,6.3,3.7,2.5,7.4,5.2,10.6,8.3.3.3.6.5,1,.8.3.2.5.4.9.2.4-.2.3-.6.2-.9,0-.4-.2-.8-.4-1.2-1.8-4.8-3.8-9.6-6-14.3-2.6-5.6-5.7-10.9-8.5-16.4-.6-1.2-1.1-2.5-.8-3.9.5-2.1,2.6-3,4.4-1.8,1,.7,1.7,1.7,2.3,2.7,2.4,4,4.8,8,6.8,12.2,2.4,4.9,4.6,9.9,6.7,15,.5,1.3,1,2.6,1.6,3.9.2.4.4,1,.9.9.5,0,.6-.7.7-1.2.4-2,.4-4,.7-6,.4-2.8.9-5.6,1.3-8.4.5-3.2,1.3-6.2,2.3-9.2.3-.9.8-1.6,1.4-2.3.8-.9,1.8-1.2,3-.7,1.1.4,1.7,1.4,1.8,2.5.2,1.5-.2,2.8-.6,4.2-.9,2.8-1.5,5.6-1.8,8.5-.4,3.5-.9,6.9-1.2,10.4-.2,2.4-.3,4.7-.4,7.1,0,.3,0,.7,0,1,.2,1,.8,1.5,1.9,1.3,1.2-.3,2.5-.6,3.7-.8,3.6-.6,7.2-.7,10.6.6,2.1.8,3.9,2.2,5.4,3.9,3,3.1,4.9,6.9,6.7,10.7,2.6,5.7,4.4,11.6,6,17.6,1.1,4,2.1,7.9,3.1,11.9,1,4.2,2.2,8.3,3.2,12.5.9,3.8,1.7,7.6,2.6,11.4.5,1.9.8,3.7.8,5.7,0,.9-.2,1.8-.9,2.4-1.2,1.1-3.2.6-3.8-1-.8-1.9-1.2-4-1.7-6-1.1-4.5-2.3-9-3.6-13.4-.3-1-.6-2.1-.9-3.1-.5-1.6-1.4-2.1-3-1.6-2,.7-4.1,1.4-6.1,2.1-1.4.5-2.8.8-4.3.7-1.1,0-2.1-.4-2.5-1.5-.4-1.1,0-2.1.7-3,1.2-1.2,2.7-1.8,4.3-2.3,1.9-.6,3.7-1.3,5.6-2,.3-.1.6-.2.9-.4,1.4-.7,1.9-1.7,1.5-3.2-.6-3.1-1.8-6.1-2.7-9.2-.8-2.8-1.7-5.5-2.5-8.2,0-.1,0-.3-.1-.4-.7-1.9-1.8-2.4-3.7-1.7-2.7,1.1-5.5,2.2-8.4,2.8-1.4.3-2.7.7-4.1.6-1.4,0-2.5-.7-2.8-1.7-.4-1.1,0-2.2,1.2-3.1.9-.7,2-1.1,3.2-1.4,2.8-.7,5.6-1.8,8.3-2.8,1.9-.7,2.5-2,1.5-3.8-1.9-3.6-4.7-6-8.7-6.7-.2,0-.3,0-.5,0-.5,0-.9,0-1.4,0Z"/>
          <path class="cls-2" d="M177.9,134.7c0,6.6,1.8,12,5,17,.7,1,1.3,2.1,1.9,3.2.7,1.5.1,2.6-1.5,2.8-2.5.3-4.4-.6-5.7-2.8-1.9-3.1-3.4-6.4-4.5-9.8-1.1-3.5-1.7-7-1.6-10.6.2-4.9,1-9.7,3.1-14.2,1.7-3.6,4.2-6.6,7.2-9.2,1.7-1.5,3.5-2.8,5.5-3.9,3.1-1.7,6.3-2.7,9.9-2.9,1.5,0,3,0,4.6-.1.8,0,1.7,0,2.1-.8.3-.8-.6-1.2-1.1-1.6-2.4-2.1-5.2-3.6-8.3-4.7-3.4-1.3-6.9-1.3-10.5-.7-.6,0-1.3.1-1.9.1-1.7,0-2.7-.9-3-2.4-.2-1.2.7-2.6,2-3.1,1.3-.5,2.6-.8,4-1,5-.7,9.8,0,14.5,1.9,2.3,1,4.5,2.3,6.6,3.8,0,0,.1,0,.2.1,1.3.9,2,.6,2.4-.9.5-2.5,1.1-4.9,1.8-7.4,1-3.1,2.4-6.1,4.3-8.7,1.6-2.2,3.4-4.3,5.5-5.9,1-.8,2.1-1.2,3.4-1,1.8.3,2.7,2,2.1,3.7-.3.8-.8,1.5-1.5,2.2-2.4,2.4-4.5,4.9-6.1,7.9-1.5,2.8-2.4,5.8-2.8,8.9-.3,2.8-.3,5.6.1,8.4,0,.6.3,1.2.6,1.7.5,1,1.2,1.3,2.3,1,2.3-.6,4.5-1.2,6.9-1.5,2.9-.4,5.7-.3,8.6.1,2.8.5,5.4,1.3,7.8,2.6,2.6,1.3,4.8,3,6.9,5,3.8,3.7,6.4,8.1,8.1,13,.7,1.9.9,4,1.1,6,.2,1.5.4,2.9.3,4.4-.1,4.2-.7,8.3-2.4,12.2-1,2.4-2,4.8-3.3,7.1-1.2,2-2.8,3.2-5.3,3-1.6-.1-2.4-1.3-2-2.8.4-1.5,1.4-2.8,2.1-4.1,1.4-2.6,2.7-5.3,3.5-8.2,1.8-6.7,1.1-13.2-2-19.4-2.4-4.8-5.9-8.6-10.9-10.9-2.1-1-4.3-1.4-6.5-1.4-.4,0-.9,0-1.1.5-.1.4.2.7.4,1,.6.7,1.3,1.2,1.7,2,.4.7.7,1.5.6,2.4-.2,2-1.9,3-3.9,2.2-1.5-.6-2.9-1.4-4.4-2-2.5-1.1-5.1-2-7.7-2.7-.9-.2-1.8,0-2.6.4-1.8,1.2-3.3,2.8-4.8,4.4-2.2,2.4-3.9,5-5.7,7.7-.6.9-1.2,1.8-2.3,2.1-1.9.6-3.6-.6-3.7-2.6,0-1.2.2-2.4.8-3.4,1.6-3,3.3-6,5.8-8.4.3-.2.4-.6.6-.9.5-.8.3-1.5-.6-1.8-1.3-.5-2.7-.4-4-.5-4-.3-7.8.5-11.3,2.6-2.2,1.3-4.1,3-5.7,4.9-2.7,3.1-4.2,6.8-5.1,10.8-.4,1.9-.7,3.9-.6,5.2Z"/>
          <path class="cls-2" d="M244.4,58.6c-.2,1.4-1,2.9-2.6,3.9-1,.6-2.1.4-3.1,0-3.3-1.2-6.6-2.3-10-3.2-2.4-.7-4.9-1.3-7.4-1.8-3.4-.7-6.9-1.1-10.3-1.6-3.6-.5-7.3-.7-11-.9-3.4-.1-6.7,0-10.1.1-3.3.2-6.6.7-9.8,1.2-2.6.4-5.2.6-7.8,1.3-3.8.9-7.6,1.8-11.4,3-4.2,1.3-8.4,3-12.4,4.8-1,.4-1.9.9-2.9,1.3-3.1,1.2-4.5,0-5.8-2.8-.7-1.6-.3-2.6,1-3.6,1.5-1.1,3.2-1.8,4.9-2.5,3.3-1.3,6.5-2.8,9.8-3.9,3.7-1.3,7.3-2.4,11.1-3.3,3.2-.7,6.3-1.5,9.6-1.9,4.8-.6,9.5-1.4,14.3-1.6,3,0,6-.3,9-.2,3.6.1,7.2.3,10.8.7,4.7.6,9.5,1.2,14.1,2.3,3.5.8,7.1,1.6,10.5,2.9,2.6.9,5.2,1.6,7.6,2.8,1.3.6,1.7,1.3,1.7,3Z"/>
          <path class="cls-2" d="M220.2,196.6c0,.8-.4,1.5-.8,2.2-1.3,2.4-3.2,4.4-5,6.4-2.8,3-5.8,5.8-9,8.4-2.5,2.1-4.9,4.3-7.3,6.4-3.6,3.2-7.3,6.3-11.2,9.1-2.1,1.5-4,3.2-6.2,4.7-2,1.3-3.5,1.3-5.4-.2-1.4-1.2-1.4-3.4,0-4.5,2.6-1.9,5.2-3.7,7.7-5.6,2.7-2.1,5.3-4.2,7.9-6.4,2.7-2.3,5.4-4.6,8-6.9,1.6-1.4,3.1-2.9,4.7-4.4,3.3-3,6.5-6.1,10.2-8.7,1.3-.9,2.8-1.7,4.4-1.9,1.2-.1,2,.4,2,1.5Z"/>
          <path class="cls-2" d="M259.5,254.4c.2,2.3-1.7,3.6-3.8,2.6-2-.9-3.8-2.1-5.6-3.4-2.8-2.1-5.7-4.2-8.6-6.2-3-2.1-6-4.3-9-6.5-2.1-1.6-4.3-3.1-6.4-4.7-2.4-1.8-4.8-3.7-7.3-5.5-1.7-1.2-3.4-2.3-5.1-3.5-.6-.4-1.2-.8-1.6-1.5-.6-1-.9-2.1-.2-3.1.8-1.1,1.9-1.6,3.2-1.3,1.6.3,2.9,1,4.2,1.9,4.5,3,8.8,6.2,13.1,9.4,2.8,2.1,5.8,4,8.5,6.1,4.3,3.3,8.9,6.3,13.3,9.5,1.4,1,2.9,2,4.1,3.3.7.8,1.2,1.7,1.1,2.7Z"/>
          <path class="cls-2" d="M191.2,257.2c-1.1,0-2.1-.8-3.2-1.4-2.1-1.2-3.9-2.8-5.9-4.2-2.9-2-5.9-4-8.7-6.1-4.7-3.4-9.4-6.8-13.9-10.5-3.3-2.7-6.8-5.1-10.3-7.5-.7-.5-1.4-1-1.8-1.8-.6-1.1-.6-2.1,0-3.2.6-1,1.7-1.3,2.8-1.2,2,.2,3.7,1.3,5.3,2.4,3,2,5.8,4.2,8.7,6.3,2.3,1.7,4.6,3.3,6.9,5,2.3,1.7,4.6,3.5,6.9,5.2,3.5,2.6,7.1,5.1,10.7,7.6,1.5,1.1,3.2,2.1,4.4,3.5,1,1.1,1.6,2.4,1,4-.4,1-1.4,1.7-2.7,1.7Z"/>
          <path class="cls-2" d="M243.4,234.4c-1.9.1-3.8-1.4-3.2-4,.2-.9.9-1.4,1.5-1.9,3.3-2.5,6.7-5,9.9-7.6,2.9-2.3,5.8-4.7,8.7-7.2,2-1.8,4.1-3.5,6.1-5.2,1.6-1.4,3.2-3,4.7-4.5,2.4-2.3,4.8-4.5,7.5-6.3,1.3-.8,2.6-1.4,4.1-1.6,2.3-.3,2.5.9,2,2.4-.5,1.6-1.6,2.7-2.6,4-1.8,2.3-3.9,4.3-6,6.2-2.3,2.1-4.6,4-6.9,6.1-2,1.7-3.9,3.5-5.9,5.3-2.8,2.5-5.8,4.9-8.9,7.1-2.5,1.9-5,3.8-7.6,5.6-1,.8-2.1,1.6-3.5,1.5Z"/>
          <path class="cls-2" d="M303.7,219.8c.2,1.2-.4,2.2-1.2,3-3,3.2-6,6.4-9.3,9.2-3.8,3.3-7.8,6.2-11.7,9.2-4.1,3.2-8.6,5.9-13.2,8.3-.5.2-1,.4-1.5.6-1.4.4-2.5,0-3.2-1.2-.7-1.1-.5-2.7.3-3.6,1-1.1,2.3-1.8,3.5-2.6,4.3-2.8,8.6-5.6,12.7-8.6,2.1-1.5,4.1-3.3,6.1-5,2-1.7,4-3.4,6-5.1,1.3-1.2,2.5-2.5,3.8-3.8,1.1-1.1,2.2-2.3,3.6-3.1.6-.4,1.3-.6,2.1-.5,1.5.3,2.1,1.1,2.1,3.1Z"/>
          <path class="cls-2" d="M98,219c0-1.8.6-2.6,2.1-2.8,1-.1,1.9.4,2.6.9.9.7,1.7,1.6,2.4,2.5,1.9,2.1,3.9,4,6,6,3.1,3,6.5,5.8,9.9,8.5,4.7,3.6,9.6,7,14.5,10.3,1.6,1.1,1.7,2.4,1.3,4.1-.3,1.4-1.9,2-3.4,1.5-1.2-.4-2.3-1.1-3.4-1.7-4.1-2.5-8.2-5.2-12.1-8.1-2.8-2.1-5.4-4.4-8-6.7-2.2-2-4.4-3.9-6.5-6-1.7-1.8-3.4-3.5-4.7-5.6-.5-.9-1-1.8-.9-2.8Z"/>
          <path class="cls-2" d="M152.9,195.4c1.5,0,2.1.7,1.6,2.2-.6,2.1-2,3.8-3.4,5.4-3.1,3.5-6.5,6.6-10.1,9.6-2.1,1.7-4,3.6-6,5.4-2.8,2.6-5.8,5-8.9,7.4-1.3,1-2.6,2-4.2,2.5-1.4.4-3-.3-3.8-1.6-.7-1.1-.5-2.3.5-3.5,1.3-1.4,2.8-2.5,4.2-3.7,1.7-1.3,3.3-2.8,5-4.1,2.3-1.7,4.4-3.7,6.5-5.6,2.2-1.9,4.3-4,6.5-5.9,2.4-2.1,4.6-4.4,7.2-6.2,1.9-1.3,3.5-1.9,4.9-2Z"/>
          <path class="cls-2" d="M161.6,245.2c.2,1.3-.6,2-1.6,2.7-3.7,2.7-7.4,5.4-11.5,7.5-1.7.9-3.4,1.8-5.3,2.2-1.7.3-3.2-.5-3.7-1.9-.4-1.3.1-2.7,1.5-3.7,1.1-.8,2.4-1.5,3.6-2.1,3.3-1.8,6.5-3.9,9.5-6.1,1.2-.8,2.3-1.7,3.8-1.9,1.8-.2,3.8,1.7,3.6,3.3Z"/>
          <path class="cls-2" d="M208.4,257.4c-1.8,0-2.7-.7-3.2-2.2-.4-1.4.2-2.8,1.7-3.7,1.5-1,3.3-1.7,4.8-2.6,2.7-1.6,5.4-3.2,7.9-5,.9-.6,1.8-1.2,2.7-1.6,1.7-.8,3.3-.3,4.2,1.2.7,1.2.6,3.3-.9,4.3-2.6,1.8-5.1,3.6-7.8,5.3-2.4,1.5-4.8,2.9-7.3,4-.7.3-1.4.5-2,.4Z"/>
          <path class="cls-2" d="M178.5,193.5c1.8.1,3.3,1,4.8,2.1,2,1.4,3.9,3,5.8,4.5,1,.8,1.9,1.6,2.9,2.4.7.6,1.3,1.3,1.8,2.2.8,1.5.5,3.3-.9,4.4-.8.6-1.7.7-2.6.3-1.5-.6-2.7-1.7-3.9-2.8-1.7-1.4-3.4-2.9-5-4.4-1.4-1.3-3-2.5-4.1-4.1-.4-.6-.7-1.2-.9-1.8-.4-1.2.4-3,2.2-2.8Z"/>
          <path class="cls-2" d="M244,193.8c2.1,0,3.5.9,4.8,1.8,2.4,1.7,4.7,3.7,7,5.5,1.1.9,2.3,1.7,3.1,3,.6,1,1.1,2.1.7,3.4-.6,2-1.8,2.4-3.8,2-1.4-.3-2.4-1.4-3.5-2.2-2.8-2.4-5.6-4.8-8.1-7.4-.6-.7-1.2-1.4-1.7-2.1-.5-.8-.5-1.6-.3-2.4.2-.9,1-1.4,1.8-1.4Z"/>
          <path class="cls-2" d="M115,193.6c1.5.1,3,.6,4.2,1.7,2.8,2.3,5.5,4.7,8.3,7,.5.4,1,.9,1.4,1.5.9,1.3.8,2.8-.2,4-1.3,1.6-2.7,1.8-4.6.6-1.3-.8-2.5-1.9-3.6-2.9-2-1.8-3.9-3.6-5.8-5.5-.8-.8-1.4-1.7-1.9-2.7,0-.1-.1-.2-.2-.4-.9-2.1,0-3.3,2.4-3.3Z"/>
          <path class="cls-2" d="M105.1,241.8c-1.8,0-3-1.2-3-3.1,0-1.7,1-2.7,2.7-2.7,1.7,0,3,1.3,3,3.2,0,1.8-1.1,2.8-2.7,2.6Z"/>
          <path class="cls-2" d="M299.6,239.2c0,1.6-1.2,2.8-2.7,2.8-1.5,0-2.7-1.2-2.7-2.7,0-1.5,1.4-3.1,2.7-3,1.6.1,2.7,1,2.7,2.9Z"/>
          <path class="cls-2" d="M276.4,224.1c0-1.5,1-2.5,2.4-2.5,1.4,0,2.4,1.1,2.4,2.5,0,1.5-1,2.4-2.5,2.4-1.4,0-2.3-.9-2.3-2.4Z"/>
        </g>
      </g>
      <g>
        <path class="cls-2" d="M25.9,327.1c0,5-1.6,6.8-6.2,6.8s-3.6-.3-5.3-.9l-.5-.2v8h.3c1.6.6,4.2.9,6.7.9,9.5,0,14-4.8,14-15v-36h-9v36.3Z"/>
        <path class="cls-2" d="M59.9,302.5c-10.3,0-17,7.7-17,19.6s7,19.7,18.6,19.7,9.7-1.4,12.4-2.7h.2v-7l-.5.2c-2.5,1.1-6.3,2.5-10.7,2.5-7,0-10.8-3.5-11.1-10.1h23.5v-4c0-11.6-5.6-18.2-15.4-18.2ZM67.1,318.5h-15.4c.4-5.6,3.5-9,8.4-9s6.9,3.2,7,9Z"/>
        <path class="cls-2" d="M125.9,302.5c-4.3,0-8.5,1.9-12.3,5.6-2-3.6-5.9-5.6-10.8-5.6s-8,1.7-11.5,4.9v-4.2h-8.1v37.6h8.8v-28.1c2.1-1.9,4.8-3,7.5-3,4.6,0,6.9,2.7,6.9,8.1v23h8.7v-26.2c0-.6,0-1.2-.1-1.8,2-1.9,4.9-3.1,7.6-3.1s6.9,1.4,6.9,8.1v23h8.7v-24.2c0-9.4-4.1-14.1-12.2-14.1Z"/>
        <path class="cls-2" d="M160.4,318.9c-3.3-1.3-6.2-2.4-6.2-5.4s2-4.4,5.9-4.4,5.2.7,7.8,1.9l.6.3v-7h-.2c-1-.5-4.5-1.8-9.2-1.8-8.5,0-13.4,4.1-13.4,11.1s5.5,9.8,9.9,11.6c3.2,1.3,6,2.4,6,5.2s-2,4.8-6.2,4.8-5.8-.8-9.3-2.4l-.6-.3v7h.2c2.9,1.4,6.7,2.1,10.5,2.1,9,0,14.1-4.2,14.1-11.6s-5.5-9.6-9.9-11.4Z"/>
        <path class="cls-2" d="M192.5,290.8h-14.3v50h9.1v-17.7h5.3c12.1,0,19.3-6.2,19.3-16.7s-6.5-15.6-19.3-15.6ZM192.5,315.3h-5.3v-16.6h5.1c6.8,0,10.1,2.6,10.1,8s-3.6,8.6-9.9,8.6Z"/>
        <path class="cls-2" d="M246.7,335.3c-1.7,0-1.9-1-1.9-1.7v-17.2c0-9.7-4.4-13.8-14.9-13.8s-7.9.6-12.1,1.8h-.3v6.8h.5c4.1-1,7.5-1.5,10.4-1.5,5.5,0,7.6,1.9,7.6,6.7v1.6h-7.2c-9.9,0-15.1,4.3-15.1,12.4s4.4,11.4,12.2,11.4,8.5-1.5,11.1-4.2c.9,2.9,3,4.2,6.4,4.2s3.6-.5,5-1h.3v-5.6h-.4c-.4.1-1,.2-1.5.2ZM235.9,323.6v8.6c-2.1,1.8-4.5,2.6-7.5,2.6s-6-1.7-6-5.2,2.5-6,8-6h5.6Z"/>
        <path class="cls-2" d="M276.1,302.5c-4.7,0-9,1.7-12.6,4.9v-4.2h-8.1v37.6h8.8v-28.1c2.3-2,5.2-3.1,8.3-3.1,4.6,0,7.1,2.5,7.1,7.2v23.9h8.8v-24.2c0-9.2-4.2-14.1-12.2-14.1Z"/>
        <path class="cls-2" d="M314,334.7c-3.3,0-4.8-1.4-4.8-4.4v-20.5h10.8v-6.6h-10.8v-10.1h-8.8v10.1h-6.3v6.6h6.3v20.5c0,7.5,3.9,11.4,11.4,11.4s6.3-.5,8-1h.3v-7.1l-.5.2c-2.1.6-3.9.9-5.5.9Z"/>
        <path class="cls-2" d="M335,309.4v-6.2h-8.1v37.6h8.8v-25.3c3.5-2.9,8-4.6,12.4-4.6h.4v-8.4h-.4c-4.8,0-8.4,1.9-13.1,6.9Z"/>
        <path class="cls-2" d="M378.7,303.3l-9.8,28-9.9-28h-8.7l13.9,38.3c-1.9,5.5-3.7,7.2-7.8,7.2s-3.5-.2-5.8-1.1l-.5-.2v7.6h.3c2.2.6,3.9.8,6.3.8,8.2,0,12.7-3.8,16.4-14l14-38.7h-8.3Z"/>
      </g>
    </g>
  </g>
</svg>